<svg id="Layer_1" data-name="Layer 1" xmlns="http://www.w3.org/2000/svg" viewBox="0 0 792 81.33"><defs><style>.cls-1{fill:#fff;}.cls-2{fill:#e8e8e8;}</style></defs><polygon class="cls-1" points="144.2 28 144.2 28 153.92 28 153.92 14.62 188.93 14.62 188.93 5.71 144.2 5.71 144.2 28 144.2 28 144.2 28"/><polygon class="cls-1" points="144.2 35.92 144.2 76.54 153.92 76.54 153.92 45.34 184.55 45.34 184.55 35.92 144.2 35.92"/><path class="cls-1" d="M233.17,68.62h0c-15.56,0-27.71-11.89-27.71-27.25A27.54,27.54,0,0,1,232.8,13.63h.37c15.56,0,28.2,11.89,28.2,27.74C261.37,56.73,248.73,68.62,233.17,68.62Zm0-63.9h0c-20.91,0-37.92,15.85-37.92,36.65,0,20.31,16,36.66,37.92,36.66,21.39,0,38.41-16.85,38.41-37.16s-17-36.15-38.41-36.15Z"/><path class="cls-1" d="M295.4,38.89h0V14.62h15.08c8.75,0,13.12,5.45,13.12,11.89,0,5.95-4.37,12.38-15.07,12.38Zm38.41-12.38h0c0-10.4-7.78-20.8-23.33-20.8H285.19V76.54H295.4V47.81h10.21l19,28.73h12.64L316.31,46.82C328,44.34,333.81,35.43,333.81,26.51Z"/><path class="cls-1" d="M381,44.34h24.8V58.21A32.39,32.39,0,0,1,382,68.62c-15.56,0-27.72-11.89-27.72-27.25,0-16.34,12.16-27.74,28.2-27.74,9.24,0,17.5,3.47,23.34,9.91l7.29-6.44c-6.32-7.43-18-12.38-30.63-12.38-21,0-38.48,14.85-38.48,36.15s16.05,36.66,37.44,36.66A44.22,44.22,0,0,0,415,62.67V35.43H381Z"/><polygon class="cls-1" points="429.59 27.5 429.59 27.5 439.8 27.5 439.8 14.62 475.78 14.62 475.78 5.71 429.59 5.71 429.59 27.5 429.59 27.5 429.59 27.5"/><polygon class="cls-1" points="429.59 76.54 429.59 76.54 475.78 76.54 475.78 67.63 439.8 67.63 439.8 44.84 472.86 44.84 472.86 35.92 439.8 35.92 439.8 35.92 429.59 35.92 429.59 76.54 429.59 76.54 429.59 76.54"/><path class="cls-1" d="M514.67,40.38h-14.1V14.62h15.08c9.24,0,13.61,6,13.61,12.39s-4.37,13.37-14.59,13.37Zm.49-34.67H490.37V76.54h10.2V49.3h13.62c17,0,24.8-10.9,24.8-21.8S531.69,5.71,515.16,5.71Z"/><path class="cls-1" d="M584.69,68.62h0C568.64,68.62,557,56.73,557,41.37a27.72,27.72,0,1,1,55.43-1q0,.52,0,1c0,15.36-12.16,27.25-27.71,27.25Zm0-63.9h0c-20.91,0-38.41,15.85-38.41,36.65C546.28,61.68,562.81,78,584.2,78s38.41-16.85,38.41-37.16-17-36.15-37.92-36.15Z"/><polygon class="cls-1" points="636.71 76.54 636.71 76.54 646.43 76.54 646.43 5.71 636.71 5.71 636.71 76.54 636.71 76.54 636.71 76.54"/><polygon class="cls-1" points="714.5 56.23 714.5 56.23 669.77 5.71 664.91 5.71 664.91 76.54 675.12 76.54 675.12 26.02 719.36 76.54 724.22 76.54 724.22 5.71 714.5 5.71 714.5 56.23 714.5 56.23 714.5 56.23"/><polygon class="cls-1" points="734.92 5.71 734.92 5.71 734.92 14.62 756.8 14.62 756.8 76.54 767.01 76.54 767.01 14.62 788.89 14.62 788.89 5.71 734.92 5.71 734.92 5.71 734.92 5.71"/><path class="cls-1" d="M47.63,56.56H90.32a1.7,1.7,0,0,0,1.36-.68l14.68-19.76a.51.51,0,0,0-.41-.81H35.21a1.71,1.71,0,0,0-1.36.69L4.29,75.75a.51.51,0,0,0,.4.81H31.92a1.67,1.67,0,0,0,.73-.18h0A19.4,19.4,0,0,1,47.38,56.62Z"/><path class="cls-1" d="M127.88,5.77H57.14a1.7,1.7,0,0,0-1.36.69L41.1,26.21a.51.51,0,0,0,.4.81h70.75a1.68,1.68,0,0,0,1.35-.68L128.29,6.58A.51.51,0,0,0,127.88,5.77Z"/><path class="cls-2" d="M18.57,56.56,32.65,76.39a1.74,1.74,0,0,0,.63-.52L47.63,56.56Z"/></svg>