<svg version="1.1" viewBox="0.0 0.0 600.0 371.0" fill="none" stroke="none" stroke-linecap="square" stroke-miterlimit="10" width="600" height="371" xmlns:xlink="http://www.w3.org/1999/xlink" xmlns="http://www.w3.org/2000/svg"><path fill="#000000" d="M0 0L600.0 0L600.0 371.0L0 371.0L0 0Z" fill-rule="nonzero"/><path stroke="#cccccc" stroke-width="1.0" stroke-linecap="butt" d="M73.5 332.5L540.5 332.5" fill-rule="nonzero"/><path stroke="#666666" stroke-width="1.0" stroke-linecap="butt" d="M73.5 261.5L540.5 261.5" fill-rule="nonzero"/><path stroke="#666666" stroke-width="1.0" stroke-linecap="butt" d="M73.5 191.5L540.5 191.5" fill-rule="nonzero"/><path stroke="#666666" stroke-width="1.0" stroke-linecap="butt" d="M73.5 120.5L540.5 120.5" fill-rule="nonzero"/><path stroke="#666666" stroke-width="1.0" stroke-linecap="butt" d="M73.5 49.5L540.5 49.5" fill-rule="nonzero"/><clipPath id="id_0"><path d="M73.55 49.916668L540.45 49.916668L540.45 332.45L73.55 332.45L73.55 49.916668Z" clip-rule="nonzero"/></clipPath><path stroke="#000000" stroke-width="2.0" stroke-linecap="butt" stroke-opacity="0.0" clip-path="url(#id_0)" d="M145.0 332.0L112.0 332.0L112.0 310.0C112.0 308.89542 112.89543 308.0 114.0 308.0L143.0 308.0C144.10457 308.0 145.0 308.89542 145.0 310.0Z" fill-rule="nonzero"/><path fill="#01ffff" clip-path="url(#id_0)" d="M145.0 332.0L112.0 332.0L112.0 310.0C112.0 308.89542 112.89543 308.0 114.0 308.0L143.0 308.0C144.10457 308.0 145.0 308.89542 145.0 310.0Z" fill-rule="nonzero"/><path stroke="#000000" stroke-width="2.0" stroke-linecap="butt" stroke-opacity="0.0" clip-path="url(#id_0)" d="M252.0 332.0L219.0 332.0L219.0 304.0C219.0 302.89542 219.89543 302.0 221.0 302.0L250.0 302.0C251.10457 302.0 252.0 302.89542 252.0 304.0Z" fill-rule="nonzero"/><path fill="#049595" clip-path="url(#id_0)" d="M252.0 332.0L219.0 332.0L219.0 304.0C219.0 302.89542 219.89543 302.0 221.0 302.0L250.0 302.0C251.10457 302.0 252.0 302.89542 252.0 304.0Z" fill-rule="nonzero"/><path stroke="#000000" stroke-width="2.0" stroke-linecap="butt" stroke-opacity="0.0" clip-path="url(#id_0)" d="M360.0 332.0L327.0 332.0L327.0 301.0C327.0 299.89542 327.89542 299.0 329.0 299.0L358.0 299.0C359.10458 299.0 360.0 299.89542 360.0 301.0Z" fill-rule="nonzero"/><path fill="#049595" clip-path="url(#id_0)" d="M360.0 332.0L327.0 332.0L327.0 301.0C327.0 299.89542 327.89542 299.0 329.0 299.0L358.0 299.0C359.10458 299.0 360.0 299.89542 360.0 301.0Z" fill-rule="nonzero"/><path stroke="#000000" stroke-width="2.0" stroke-linecap="butt" stroke-opacity="0.0" clip-path="url(#id_0)" d="M467.0 332.0L434.0 332.0L434.0 52.0C434.0 50.89543 434.89542 50.0 436.0 50.0L465.0 50.0C466.10458 50.0 467.0 50.89543 467.0 52.0Z" fill-rule="nonzero"/><path fill="#049595" clip-path="url(#id_0)" d="M467.0 332.0L434.0 332.0L434.0 52.0C434.0 50.89543 434.89542 50.0 436.0 50.0L465.0 50.0C466.10458 50.0 467.0 50.89543 467.0 52.0Z" fill-rule="nonzero"/><path stroke="#000000" stroke-width="2.0" stroke-linecap="butt" stroke-opacity="0.0" clip-path="url(#id_0)" d="M180.0 332.0L147.0 332.0L147.0 306.0C147.0 304.89542 147.89543 304.0 149.0 304.0L178.0 304.0C179.10457 304.0 180.0 304.89542 180.0 306.0Z" fill-rule="nonzero"/><path fill="#f6b26b" clip-path="url(#id_0)" d="M180.0 332.0L147.0 332.0L147.0 306.0C147.0 304.89542 147.89543 304.0 149.0 304.0L178.0 304.0C179.10457 304.0 180.0 304.89542 180.0 306.0Z" fill-rule="nonzero"/><path stroke="#000000" stroke-width="2.0" stroke-linecap="butt" stroke-opacity="0.0" clip-path="url(#id_0)" d="M287.0 332.0L254.0 332.0L254.0 324.0C254.0 322.89542 254.89543 322.0 256.0 322.0L285.0 322.0C286.10458 322.0 287.0 322.89542 287.0 324.0Z" fill-rule="nonzero"/><path fill="#f6b26b" clip-path="url(#id_0)" d="M287.0 332.0L254.0 332.0L254.0 324.0C254.0 322.89542 254.89543 322.0 256.0 322.0L285.0 322.0C286.10458 322.0 287.0 322.89542 287.0 324.0Z" fill-rule="nonzero"/><path stroke="#f6b26b" stroke-width="2.0" stroke-linecap="butt" clip-path="url(#id_0)" d="M395.0 332.0L362.0 332.0L362.0 318.0C362.0 316.89542 362.89542 316.0 364.0 316.0L393.0 316.0C394.10458 316.0 395.0 316.89542 395.0 318.0Z" fill-rule="nonzero"/><path fill="#f6b26b" clip-path="url(#id_0)" d="M395.0 332.0L362.0 332.0L362.0 318.0C362.0 316.89542 362.89542 316.0 364.0 316.0L393.0 316.0C394.10458 316.0 395.0 316.89542 395.0 318.0Z" fill-rule="nonzero"/><path fill="#01ffff" d="M61.05 332.21564Q61.05 330.6844 61.3625 329.7625Q61.675 328.825 62.284374 328.325Q62.909374 327.825 63.846874 327.825Q64.53438 327.825 65.05 328.10626Q65.58125 328.3875 65.925 328.91876Q66.26875 329.4344 66.45625 330.1844Q66.64375 330.9344 66.64375 332.21564Q66.64375 333.73126 66.33125 334.65314Q66.03438 335.575 65.40938 336.09064Q64.8 336.59064 63.846874 336.59064Q62.6125 336.59064 61.89375 335.7Q61.05 334.6375 61.05 332.21564ZM62.128124 332.21564Q62.128124 334.325 62.628124 335.02814Q63.128124 335.73126 63.846874 335.73126Q64.58125 335.73126 65.06563 335.02814Q65.56563 334.325 65.56563 332.21564Q65.56563 330.09064 65.06563 329.40314Q64.58125 328.7 63.83125 328.7Q63.1125 328.7 62.675 329.3094Q62.128124 330.09064 62.128124 332.21564Z" fill-rule="nonzero"/><path fill="#01ffff" d="M26.05 263.56668L27.159374 263.47293Q27.284374 264.28543 27.721874 264.69168Q28.175 265.09793 28.815624 265.09793Q29.565624 265.09793 30.096874 264.5198Q30.628124 263.94168 30.628124 263.00418Q30.628124 262.09793 30.1125 261.5823Q29.6125 261.05106 28.784374 261.05106Q28.284374 261.05106 27.8625 261.28543Q27.45625 261.5198 27.221874 261.87918L26.2375 261.75418L27.065624 257.34793L31.346874 257.34793L31.346874 258.34793L27.909374 258.34793L27.45625 260.66043Q28.221874 260.11356 29.065624 260.11356Q30.190624 260.11356 30.95625 260.8948Q31.7375 261.67606 31.7375 262.91043Q31.7375 264.06668 31.065624 264.92606Q30.2375 265.9573 28.815624 265.9573Q27.64375 265.9573 26.89375 265.30106Q26.159374 264.6448 26.05 263.56668ZM33.05 261.5823Q33.05 260.05106 33.3625 259.12918Q33.675 258.19168 34.284374 257.69168Q34.909374 257.19168 35.846874 257.19168Q36.534374 257.19168 37.05 257.47293Q37.58125 257.75418 37.925 258.28543Q38.26875 258.80106 38.45625 259.55106Q38.64375 260.30106 38.64375 261.5823Q38.64375 263.09793 38.33125 264.0198Q38.034374 264.94168 37.409374 265.4573Q36.8 265.9573 35.846874 265.9573Q34.6125 265.9573 33.89375 265.06668Q33.05 264.00418 33.05 261.5823ZM34.128124 261.5823Q34.128124 263.69168 34.628124 264.3948Q35.128124 265.09793 35.846874 265.09793Q36.58125 265.09793 37.065624 264.3948Q37.565624 263.69168 37.565624 261.5823Q37.565624 259.4573 37.065624 258.7698Q36.58125 258.06668 35.83125 258.06668Q35.1125 258.06668 34.675 258.67606Q34.128124 259.4573 34.128124 261.5823ZM40.05 261.5823Q40.05 260.05106 40.3625 259.12918Q40.675 258.19168 41.284374 257.69168Q41.909374 257.19168 42.846874 257.19168Q43.534374 257.19168 44.05 257.47293Q44.58125 257.75418 44.925 258.28543Q45.26875 258.80106 45.45625 259.55106Q45.64375 260.30106 45.64375 261.5823Q45.64375 263.09793 45.33125 264.0198Q45.034374 264.94168 44.409374 265.4573Q43.8 265.9573 42.846874 265.9573Q41.6125 265.9573 40.89375 265.06668Q40.05 264.00418 40.05 261.5823ZM41.128124 261.5823Q41.128124 263.69168 41.628124 264.3948Q42.128124 265.09793 42.846874 265.09793Q43.58125 265.09793 44.065624 264.3948Q44.565624 263.69168 44.565624 261.5823Q44.565624 259.4573 44.065624 258.7698Q43.58125 258.06668 42.83125 258.06668Q42.1125 258.06668 41.675 258.67606Q41.128124 259.4573 41.128124 261.5823ZM47.05 261.5823Q47.05 260.05106 47.3625 259.12918Q47.675 258.19168 48.284374 257.69168Q48.909374 257.19168 49.846874 257.19168Q50.534374 257.19168 51.05 257.47293Q51.58125 257.75418 51.925 258.28543Q52.26875 258.80106 52.45625 259.55106Q52.64375 260.30106 52.64375 261.5823Q52.64375 263.09793 52.33125 264.0198Q52.034374 264.94168 51.409374 265.4573Q50.8 265.9573 49.846874 265.9573Q48.6125 265.9573 47.89375 265.06668Q47.05 264.00418 47.05 261.5823ZM48.128124 261.5823Q48.128124 263.69168 48.628124 264.3948Q49.128124 265.09793 49.846874 265.09793Q50.58125 265.09793 51.065624 264.3948Q51.565624 263.69168 51.565624 261.5823Q51.565624 259.4573 51.065624 258.7698Q50.58125 258.06668 49.83125 258.06668Q49.1125 258.06668 48.675 258.67606Q48.128124 259.4573 48.128124 261.5823ZM54.05 261.5823Q54.05 260.05106 54.3625 259.12918Q54.675 258.19168 55.284374 257.69168Q55.909374 257.19168 56.846874 257.19168Q57.534374 257.19168 58.05 257.47293Q58.58125 257.75418 58.925 258.28543Q59.26875 258.80106 59.45625 259.55106Q59.64375 260.30106 59.64375 261.5823Q59.64375 263.09793 59.33125 264.0198Q59.034374 264.94168 58.409374 265.4573Q57.8 265.9573 56.846874 265.9573Q55.6125 265.9573 54.89375 265.06668Q54.05 264.00418 54.05 261.5823ZM55.128124 261.5823Q55.128124 263.69168 55.628124 264.3948Q56.128124 265.09793 56.846874 265.09793Q57.58125 265.09793 58.065624 264.3948Q58.565624 263.69168 58.565624 261.5823Q58.565624 259.4573 58.065624 258.7698Q57.58125 258.06668 56.83125 258.06668Q56.1125 258.06668 55.675 258.67606Q55.128124 259.4573 55.128124 261.5823ZM61.05 261.5823Q61.05 260.05106 61.3625 259.12918Q61.675 258.19168 62.284374 257.69168Q62.909374 257.19168 63.846874 257.19168Q64.53438 257.19168 65.05 257.47293Q65.58125 257.75418 65.925 258.28543Q66.26875 258.80106 66.45625 259.55106Q66.64375 260.30106 66.64375 261.5823Q66.64375 263.09793 66.33125 264.0198Q66.03438 264.94168 65.40938 265.4573Q64.8 265.9573 63.846874 265.9573Q62.6125 265.9573 61.89375 265.06668Q61.05 264.00418 61.05 261.5823ZM62.128124 261.5823Q62.128124 263.69168 62.628124 264.3948Q63.128124 265.09793 63.846874 265.09793Q64.58125 265.09793 65.06563 264.3948Q65.56563 263.69168 65.56563 261.5823Q65.56563 259.4573 65.06563 258.7698Q64.58125 258.06668 63.83125 258.06668Q63.1125 258.06668 62.675 258.67606Q62.128124 259.4573 62.128124 261.5823Z" fill-rule="nonzero"/><path fill="#01ffff" d="M23.01875 195.18333L21.971874 195.18333L21.971874 188.46458Q21.58125 188.82396 20.95625 189.19896Q20.346874 189.55833 19.8625 189.73021L19.8625 188.71458Q20.7375 188.29271 21.39375 187.71458Q22.065624 187.12083 22.346874 186.55833L23.01875 186.55833L23.01875 195.18333ZM26.05 190.94896Q26.05 189.41771 26.3625 188.49583Q26.675 187.55833 27.284374 187.05833Q27.909374 186.55833 28.846874 186.55833Q29.534374 186.55833 30.05 186.83958Q30.58125 187.12083 30.925 187.65208Q31.26875 188.16771 31.45625 188.91771Q31.64375 189.66771 31.64375 190.94896Q31.64375 192.46458 31.33125 193.38646Q31.034374 194.30833 30.409374 194.82396Q29.8 195.32396 28.846874 195.32396Q27.6125 195.32396 26.89375 194.43333Q26.05 193.37083 26.05 190.94896ZM27.128124 190.94896Q27.128124 193.05833 27.628124 193.76146Q28.128124 194.46458 28.846874 194.46458Q29.58125 194.46458 30.065624 193.76146Q30.565624 193.05833 30.565624 190.94896Q30.565624 188.82396 30.065624 188.13646Q29.58125 187.43333 28.83125 187.43333Q28.1125 187.43333 27.675 188.04271Q27.128124 188.82396 27.128124 190.94896ZM33.05 190.94896Q33.05 189.41771 33.3625 188.49583Q33.675 187.55833 34.284374 187.05833Q34.909374 186.55833 35.846874 186.55833Q36.534374 186.55833 37.05 186.83958Q37.58125 187.12083 37.925 187.65208Q38.26875 188.16771 38.45625 188.91771Q38.64375 189.66771 38.64375 190.94896Q38.64375 192.46458 38.33125 193.38646Q38.034374 194.30833 37.409374 194.82396Q36.8 195.32396 35.846874 195.32396Q34.6125 195.32396 33.89375 194.43333Q33.05 193.37083 33.05 190.94896ZM34.128124 190.94896Q34.128124 193.05833 34.628124 193.76146Q35.128124 194.46458 35.846874 194.46458Q36.58125 194.46458 37.065624 193.76146Q37.565624 193.05833 37.565624 190.94896Q37.565624 188.82396 37.065624 188.13646Q36.58125 187.43333 35.83125 187.43333Q35.1125 187.43333 34.675 188.04271Q34.128124 188.82396 34.128124 190.94896ZM40.05 190.94896Q40.05 189.41771 40.3625 188.49583Q40.675 187.55833 41.284374 187.05833Q41.909374 186.55833 42.846874 186.55833Q43.534374 186.55833 44.05 186.83958Q44.58125 187.12083 44.925 187.65208Q45.26875 188.16771 45.45625 188.91771Q45.64375 189.66771 45.64375 190.94896Q45.64375 192.46458 45.33125 193.38646Q45.034374 194.30833 44.409374 194.82396Q43.8 195.32396 42.846874 195.32396Q41.6125 195.32396 40.89375 194.43333Q40.05 193.37083 40.05 190.94896ZM41.128124 190.94896Q41.128124 193.05833 41.628124 193.76146Q42.128124 194.46458 42.846874 194.46458Q43.58125 194.46458 44.065624 193.76146Q44.565624 193.05833 44.565624 190.94896Q44.565624 188.82396 44.065624 188.13646Q43.58125 187.43333 42.83125 187.43333Q42.1125 187.43333 41.675 188.04271Q41.128124 188.82396 41.128124 190.94896ZM47.05 190.94896Q47.05 189.41771 47.3625 188.49583Q47.675 187.55833 48.284374 187.05833Q48.909374 186.55833 49.846874 186.55833Q50.534374 186.55833 51.05 186.83958Q51.58125 187.12083 51.925 187.65208Q52.26875 188.16771 52.45625 188.91771Q52.64375 189.66771 52.64375 190.94896Q52.64375 192.46458 52.33125 193.38646Q52.034374 194.30833 51.409374 194.82396Q50.8 195.32396 49.846874 195.32396Q48.6125 195.32396 47.89375 194.43333Q47.05 193.37083 47.05 190.94896ZM48.128124 190.94896Q48.128124 193.05833 48.628124 193.76146Q49.128124 194.46458 49.846874 194.46458Q50.58125 194.46458 51.065624 193.76146Q51.565624 193.05833 51.565624 190.94896Q51.565624 188.82396 51.065624 188.13646Q50.58125 187.43333 49.83125 187.43333Q49.1125 187.43333 48.675 188.04271Q48.128124 188.82396 48.128124 190.94896ZM54.05 190.94896Q54.05 189.41771 54.3625 188.49583Q54.675 187.55833 55.284374 187.05833Q55.909374 186.55833 56.846874 186.55833Q57.534374 186.55833 58.05 186.83958Q58.58125 187.12083 58.925 187.65208Q59.26875 188.16771 59.45625 188.91771Q59.64375 189.66771 59.64375 190.94896Q59.64375 192.46458 59.33125 193.38646Q59.034374 194.30833 58.409374 194.82396Q57.8 195.32396 56.846874 195.32396Q55.6125 195.32396 54.89375 194.43333Q54.05 193.37083 54.05 190.94896ZM55.128124 190.94896Q55.128124 193.05833 55.628124 193.76146Q56.128124 194.46458 56.846874 194.46458Q57.58125 194.46458 58.065624 193.76146Q58.565624 193.05833 58.565624 190.94896Q58.565624 188.82396 58.065624 188.13646Q57.58125 187.43333 56.83125 187.43333Q56.1125 187.43333 55.675 188.04271Q55.128124 188.82396 55.128124 190.94896ZM61.05 190.94896Q61.05 189.41771 61.3625 188.49583Q61.675 187.55833 62.284374 187.05833Q62.909374 186.55833 63.846874 186.55833Q64.53438 186.55833 65.05 186.83958Q65.58125 187.12083 65.925 187.65208Q66.26875 188.16771 66.45625 188.91771Q66.64375 189.66771 66.64375 190.94896Q66.64375 192.46458 66.33125 193.38646Q66.03438 194.30833 65.40938 194.82396Q64.8 195.32396 63.846874 195.32396Q62.6125 195.32396 61.89375 194.43333Q61.05 193.37083 61.05 190.94896ZM62.128124 190.94896Q62.128124 193.05833 62.628124 193.76146Q63.128124 194.46458 63.846874 194.46458Q64.58125 194.46458 65.06563 193.76146Q65.56563 193.05833 65.56563 190.94896Q65.56563 188.82396 65.06563 188.13646Q64.58125 187.43333 63.83125 187.43333Q63.1125 187.43333 62.675 188.04271Q62.128124 188.82396 62.128124 190.94896Z" fill-rule="nonzero"/><path fill="#01ffff" d="M23.01875 124.55L21.971874 124.55L21.971874 117.83125Q21.58125 118.19063 20.95625 118.56563Q20.346874 118.925 19.8625 119.09688L19.8625 118.08125Q20.7375 117.65938 21.39375 117.08125Q22.065624 116.4875 22.346874 115.925L23.01875 115.925L23.01875 124.55ZM26.05 122.3L27.159374 122.20625Q27.284374 123.01875 27.721874 123.425Q28.175 123.83125 28.815624 123.83125Q29.565624 123.83125 30.096874 123.25313Q30.628124 122.675 30.628124 121.7375Q30.628124 120.83125 30.1125 120.31563Q29.6125 119.78438 28.784374 119.78438Q28.284374 119.78438 27.8625 120.01875Q27.45625 120.25313 27.221874 120.6125L26.2375 120.4875L27.065624 116.08125L31.346874 116.08125L31.346874 117.08125L27.909374 117.08125L27.45625 119.39375Q28.221874 118.84688 29.065624 118.84688Q30.190624 118.84688 30.95625 119.62813Q31.7375 120.40938 31.7375 121.64375Q31.7375 122.8 31.065624 123.65938Q30.2375 124.69063 28.815624 124.69063Q27.64375 124.69063 26.89375 124.03438Q26.159374 123.37813 26.05 122.3ZM33.05 120.31563Q33.05 118.78438 33.3625 117.8625Q33.675 116.925 34.284374 116.425Q34.909374 115.925 35.846874 115.925Q36.534374 115.925 37.05 116.20625Q37.58125 116.4875 37.925 117.01875Q38.26875 117.53438 38.45625 118.28438Q38.64375 119.03438 38.64375 120.31563Q38.64375 121.83125 38.33125 122.75313Q38.034374 123.675 37.409374 124.19063Q36.8 124.69063 35.846874 124.69063Q34.6125 124.69063 33.89375 123.8Q33.05 122.7375 33.05 120.31563ZM34.128124 120.31563Q34.128124 122.425 34.628124 123.12813Q35.128124 123.83125 35.846874 123.83125Q36.58125 123.83125 37.065624 123.12813Q37.565624 122.425 37.565624 120.31563Q37.565624 118.19063 37.065624 117.50313Q36.58125 116.8 35.83125 116.8Q35.1125 116.8 34.675 117.40938Q34.128124 118.19063 34.128124 120.31563ZM40.05 120.31563Q40.05 118.78438 40.3625 117.8625Q40.675 116.925 41.284374 116.425Q41.909374 115.925 42.846874 115.925Q43.534374 115.925 44.05 116.20625Q44.58125 116.4875 44.925 117.01875Q45.26875 117.53438 45.45625 118.28438Q45.64375 119.03438 45.64375 120.31563Q45.64375 121.83125 45.33125 122.75313Q45.034374 123.675 44.409374 124.19063Q43.8 124.69063 42.846874 124.69063Q41.6125 124.69063 40.89375 123.8Q40.05 122.7375 40.05 120.31563ZM41.128124 120.31563Q41.128124 122.425 41.628124 123.12813Q42.128124 123.83125 42.846874 123.83125Q43.58125 123.83125 44.065624 123.12813Q44.565624 122.425 44.565624 120.31563Q44.565624 118.19063 44.065624 117.50313Q43.58125 116.8 42.83125 116.8Q42.1125 116.8 41.675 117.40938Q41.128124 118.19063 41.128124 120.31563ZM47.05 120.31563Q47.05 118.78438 47.3625 117.8625Q47.675 116.925 48.284374 116.425Q48.909374 115.925 49.846874 115.925Q50.534374 115.925 51.05 116.20625Q51.58125 116.4875 51.925 117.01875Q52.26875 117.53438 52.45625 118.28438Q52.64375 119.03438 52.64375 120.31563Q52.64375 121.83125 52.33125 122.75313Q52.034374 123.675 51.409374 124.19063Q50.8 124.69063 49.846874 124.69063Q48.6125 124.69063 47.89375 123.8Q47.05 122.7375 47.05 120.31563ZM48.128124 120.31563Q48.128124 122.425 48.628124 123.12813Q49.128124 123.83125 49.846874 123.83125Q50.58125 123.83125 51.065624 123.12813Q51.565624 122.425 51.565624 120.31563Q51.565624 118.19063 51.065624 117.50313Q50.58125 116.8 49.83125 116.8Q49.1125 116.8 48.675 117.40938Q48.128124 118.19063 48.128124 120.31563ZM54.05 120.31563Q54.05 118.78438 54.3625 117.8625Q54.675 116.925 55.284374 116.425Q55.909374 115.925 56.846874 115.925Q57.534374 115.925 58.05 116.20625Q58.58125 116.4875 58.925 117.01875Q59.26875 117.53438 59.45625 118.28438Q59.64375 119.03438 59.64375 120.31563Q59.64375 121.83125 59.33125 122.75313Q59.034374 123.675 58.409374 124.19063Q57.8 124.69063 56.846874 124.69063Q55.6125 124.69063 54.89375 123.8Q54.05 122.7375 54.05 120.31563ZM55.128124 120.31563Q55.128124 122.425 55.628124 123.12813Q56.128124 123.83125 56.846874 123.83125Q57.58125 123.83125 58.065624 123.12813Q58.565624 122.425 58.565624 120.31563Q58.565624 118.19063 58.065624 117.50313Q57.58125 116.8 56.83125 116.8Q56.1125 116.8 55.675 117.40938Q55.128124 118.19063 55.128124 120.31563ZM61.05 120.31563Q61.05 118.78438 61.3625 117.8625Q61.675 116.925 62.284374 116.425Q62.909374 115.925 63.846874 115.925Q64.53438 115.925 65.05 116.20625Q65.58125 116.4875 65.925 117.01875Q66.26875 117.53438 66.45625 118.28438Q66.64375 119.03438 66.64375 120.31563Q66.64375 121.83125 66.33125 122.75313Q66.03438 123.675 65.40938 124.19063Q64.8 124.69063 63.846874 124.69063Q62.6125 124.69063 61.89375 123.8Q61.05 122.7375 61.05 120.31563ZM62.128124 120.31563Q62.128124 122.425 62.628124 123.12813Q63.128124 123.83125 63.846874 123.83125Q64.58125 123.83125 65.06563 123.12813Q65.56563 122.425 65.56563 120.31563Q65.56563 118.19063 65.06563 117.50313Q64.58125 116.8 63.83125 116.8Q63.1125 116.8 62.675 117.40938Q62.128124 118.19063 62.128124 120.31563Z" fill-rule="nonzero"/><path fill="#01ffff" d="M24.596874 52.901043L24.596874 53.916668L18.909374 53.916668Q18.909374 53.541668 19.034374 53.182293Q19.253124 52.604168 19.721874 52.041668Q20.20625 51.479168 21.1125 50.744793Q22.51875 49.588543 23.003124 48.916668Q23.503124 48.244793 23.503124 47.651043Q23.503124 47.026043 23.05 46.604168Q22.596874 46.166668 21.878124 46.166668Q21.1125 46.166668 20.659374 46.619793Q20.20625 47.072918 20.190624 47.885418L19.1125 47.776043Q19.221874 46.557293 19.940624 45.932293Q20.675 45.291668 21.909374 45.291668Q23.14375 45.291668 23.8625 45.979168Q24.58125 46.666668 24.58125 47.682293Q24.58125 48.197918 24.3625 48.697918Q24.159374 49.182293 23.659374 49.744793Q23.175 50.291668 22.05 51.244793Q21.096874 52.041668 20.815624 52.338543Q20.55 52.619793 20.378124 52.901043L24.596874 52.901043ZM26.05 49.682293Q26.05 48.151043 26.3625 47.229168Q26.675 46.291668 27.284374 45.791668Q27.909374 45.291668 28.846874 45.291668Q29.534374 45.291668 30.05 45.572918Q30.58125 45.854168 30.925 46.385418Q31.26875 46.901043 31.45625 47.651043Q31.64375 48.401043 31.64375 49.682293Q31.64375 51.197918 31.33125 52.119793Q31.034374 53.041668 30.409374 53.557293Q29.8 54.057293 28.846874 54.057293Q27.6125 54.057293 26.89375 53.166668Q26.05 52.104168 26.05 49.682293ZM27.128124 49.682293Q27.128124 51.791668 27.628124 52.494793Q28.128124 53.197918 28.846874 53.197918Q29.58125 53.197918 30.065624 52.494793Q30.565624 51.791668 30.565624 49.682293Q30.565624 47.557293 30.065624 46.869793Q29.58125 46.166668 28.83125 46.166668Q28.1125 46.166668 27.675 46.776043Q27.128124 47.557293 27.128124 49.682293ZM33.05 49.682293Q33.05 48.151043 33.3625 47.229168Q33.675 46.291668 34.284374 45.791668Q34.909374 45.291668 35.846874 45.291668Q36.534374 45.291668 37.05 45.572918Q37.58125 45.854168 37.925 46.385418Q38.26875 46.901043 38.45625 47.651043Q38.64375 48.401043 38.64375 49.682293Q38.64375 51.197918 38.33125 52.119793Q38.034374 53.041668 37.409374 53.557293Q36.8 54.057293 35.846874 54.057293Q34.6125 54.057293 33.89375 53.166668Q33.05 52.104168 33.05 49.682293ZM34.128124 49.682293Q34.128124 51.791668 34.628124 52.494793Q35.128124 53.197918 35.846874 53.197918Q36.58125 53.197918 37.065624 52.494793Q37.565624 51.791668 37.565624 49.682293Q37.565624 47.557293 37.065624 46.869793Q36.58125 46.166668 35.83125 46.166668Q35.1125 46.166668 34.675 46.776043Q34.128124 47.557293 34.128124 49.682293ZM40.05 49.682293Q40.05 48.151043 40.3625 47.229168Q40.675 46.291668 41.284374 45.791668Q41.909374 45.291668 42.846874 45.291668Q43.534374 45.291668 44.05 45.572918Q44.58125 45.854168 44.925 46.385418Q45.26875 46.901043 45.45625 47.651043Q45.64375 48.401043 45.64375 49.682293Q45.64375 51.197918 45.33125 52.119793Q45.034374 53.041668 44.409374 53.557293Q43.8 54.057293 42.846874 54.057293Q41.6125 54.057293 40.89375 53.166668Q40.05 52.104168 40.05 49.682293ZM41.128124 49.682293Q41.128124 51.791668 41.628124 52.494793Q42.128124 53.197918 42.846874 53.197918Q43.58125 53.197918 44.065624 52.494793Q44.565624 51.791668 44.565624 49.682293Q44.565624 47.557293 44.065624 46.869793Q43.58125 46.166668 42.83125 46.166668Q42.1125 46.166668 41.675 46.776043Q41.128124 47.557293 41.128124 49.682293ZM47.05 49.682293Q47.05 48.151043 47.3625 47.229168Q47.675 46.291668 48.284374 45.791668Q48.909374 45.291668 49.846874 45.291668Q50.534374 45.291668 51.05 45.572918Q51.58125 45.854168 51.925 46.385418Q52.26875 46.901043 52.45625 47.651043Q52.64375 48.401043 52.64375 49.682293Q52.64375 51.197918 52.33125 52.119793Q52.034374 53.041668 51.409374 53.557293Q50.8 54.057293 49.846874 54.057293Q48.6125 54.057293 47.89375 53.166668Q47.05 52.104168 47.05 49.682293ZM48.128124 49.682293Q48.128124 51.791668 48.628124 52.494793Q49.128124 53.197918 49.846874 53.197918Q50.58125 53.197918 51.065624 52.494793Q51.565624 51.791668 51.565624 49.682293Q51.565624 47.557293 51.065624 46.869793Q50.58125 46.166668 49.83125 46.166668Q49.1125 46.166668 48.675 46.776043Q48.128124 47.557293 48.128124 49.682293ZM54.05 49.682293Q54.05 48.151043 54.3625 47.229168Q54.675 46.291668 55.284374 45.791668Q55.909374 45.291668 56.846874 45.291668Q57.534374 45.291668 58.05 45.572918Q58.58125 45.854168 58.925 46.385418Q59.26875 46.901043 59.45625 47.651043Q59.64375 48.401043 59.64375 49.682293Q59.64375 51.197918 59.33125 52.119793Q59.034374 53.041668 58.409374 53.557293Q57.8 54.057293 56.846874 54.057293Q55.6125 54.057293 54.89375 53.166668Q54.05 52.104168 54.05 49.682293ZM55.128124 49.682293Q55.128124 51.791668 55.628124 52.494793Q56.128124 53.197918 56.846874 53.197918Q57.58125 53.197918 58.065624 52.494793Q58.565624 51.791668 58.565624 49.682293Q58.565624 47.557293 58.065624 46.869793Q57.58125 46.166668 56.83125 46.166668Q56.1125 46.166668 55.675 46.776043Q55.128124 47.557293 55.128124 49.682293ZM61.05 49.682293Q61.05 48.151043 61.3625 47.229168Q61.675 46.291668 62.284374 45.791668Q62.909374 45.291668 63.846874 45.291668Q64.53438 45.291668 65.05 45.572918Q65.58125 45.854168 65.925 46.385418Q66.26875 46.901043 66.45625 47.651043Q66.64375 48.401043 66.64375 49.682293Q66.64375 51.197918 66.33125 52.119793Q66.03438 53.041668 65.40938 53.557293Q64.8 54.057293 63.846874 54.057293Q62.6125 54.057293 61.89375 53.166668Q61.05 52.104168 61.05 49.682293ZM62.128124 49.682293Q62.128124 51.791668 62.628124 52.494793Q63.128124 53.197918 63.846874 53.197918Q64.58125 53.197918 65.06563 52.494793Q65.56563 51.791668 65.56563 49.682293Q65.56563 47.557293 65.06563 46.869793Q64.58125 46.166668 63.83125 46.166668Q63.1125 46.166668 62.675 46.776043Q62.128124 47.557293 62.128124 49.682293Z" fill-rule="nonzero"/><path fill="#ffd966" d="M546.95 332.21564Q546.95 330.6844 547.2625 329.7625Q547.575 328.825 548.1844 328.325Q548.8094 327.825 549.7469 327.825Q550.4344 327.825 550.95 328.10626Q551.48126 328.3875 551.825 328.91876Q552.16876 329.4344 552.35626 330.1844Q552.54376 330.9344 552.54376 332.21564Q552.54376 333.73126 552.23126 334.65314Q551.9344 335.575 551.3094 336.09064Q550.7 336.59064 549.7469 336.59064Q548.5125 336.59064 547.79376 335.7Q546.95 334.6375 546.95 332.21564ZM548.02814 332.21564Q548.02814 334.325 548.52814 335.02814Q549.02814 335.73126 549.7469 335.73126Q550.48126 335.73126 550.96564 335.02814Q551.46564 334.325 551.46564 332.21564Q551.46564 330.09064 550.96564 329.40314Q550.48126 328.7 549.73126 328.7Q549.0125 328.7 548.575 329.3094Q548.02814 330.09064 548.02814 332.21564Z" fill-rule="nonzero"/><path fill="#ffd966" d="M550.91876 279.94333L549.8719 279.94333L549.8719 273.22458Q549.48126 273.58395 548.85626 273.95895Q548.2469 274.31833 547.7625 274.4902L547.7625 273.47458Q548.6375 273.0527 549.29376 272.47458Q549.96564 271.88083 550.2469 271.31833L550.91876 271.31833L550.91876 279.94333ZM553.95 275.70895Q553.95 274.1777 554.2625 273.25583Q554.575 272.31833 555.1844 271.81833Q555.8094 271.31833 556.7469 271.31833Q557.4344 271.31833 557.95 271.59958Q558.48126 271.88083 558.825 272.41208Q559.16876 272.9277 559.35626 273.6777Q559.54376 274.4277 559.54376 275.70895Q559.54376 277.22458 559.23126 278.14645Q558.9344 279.06833 558.3094 279.58395Q557.7 280.08395 556.7469 280.08395Q555.5125 280.08395 554.79376 279.19333Q553.95 278.13083 553.95 275.70895ZM555.02814 275.70895Q555.02814 277.81833 555.52814 278.52145Q556.02814 279.22458 556.7469 279.22458Q557.48126 279.22458 557.96564 278.52145Q558.46564 277.81833 558.46564 275.70895Q558.46564 273.58395 557.96564 272.89645Q557.48126 272.19333 556.73126 272.19333Q556.0125 272.19333 555.575 272.8027Q555.02814 273.58395 555.02814 275.70895ZM560.95 275.70895Q560.95 274.1777 561.2625 273.25583Q561.575 272.31833 562.1844 271.81833Q562.8094 271.31833 563.7469 271.31833Q564.4344 271.31833 564.95 271.59958Q565.48126 271.88083 565.825 272.41208Q566.16876 272.9277 566.35626 273.6777Q566.54376 274.4277 566.54376 275.70895Q566.54376 277.22458 566.23126 278.14645Q565.9344 279.06833 565.3094 279.58395Q564.7 280.08395 563.7469 280.08395Q562.5125 280.08395 561.79376 279.19333Q560.95 278.13083 560.95 275.70895ZM562.02814 275.70895Q562.02814 277.81833 562.52814 278.52145Q563.02814 279.22458 563.7469 279.22458Q564.48126 279.22458 564.96564 278.52145Q565.46564 277.81833 565.46564 275.70895Q565.46564 273.58395 564.96564 272.89645Q564.48126 272.19333 563.73126 272.19333Q563.0125 272.19333 562.575 272.8027Q562.02814 273.58395 562.02814 275.70895ZM567.95 275.70895Q567.95 274.1777 568.2625 273.25583Q568.575 272.31833 569.1844 271.81833Q569.8094 271.31833 570.7469 271.31833Q571.4344 271.31833 571.95 271.59958Q572.48126 271.88083 572.825 272.41208Q573.16876 272.9277 573.35626 273.6777Q573.54376 274.4277 573.54376 275.70895Q573.54376 277.22458 573.23126 278.14645Q572.9344 279.06833 572.3094 279.58395Q571.7 280.08395 570.7469 280.08395Q569.5125 280.08395 568.79376 279.19333Q567.95 278.13083 567.95 275.70895ZM569.02814 275.70895Q569.02814 277.81833 569.52814 278.52145Q570.02814 279.22458 570.7469 279.22458Q571.48126 279.22458 571.96564 278.52145Q572.46564 277.81833 572.46564 275.70895Q572.46564 273.58395 571.96564 272.89645Q571.48126 272.19333 570.73126 272.19333Q570.0125 272.19333 569.575 272.8027Q569.02814 273.58395 569.02814 275.70895ZM574.95 275.70895Q574.95 274.1777 575.2625 273.25583Q575.575 272.31833 576.1844 271.81833Q576.8094 271.31833 577.7469 271.31833Q578.4344 271.31833 578.95 271.59958Q579.48126 271.88083 579.825 272.41208Q580.16876 272.9277 580.35626 273.6777Q580.54376 274.4277 580.54376 275.70895Q580.54376 277.22458 580.23126 278.14645Q579.9344 279.06833 579.3094 279.58395Q578.7 280.08395 577.7469 280.08395Q576.5125 280.08395 575.79376 279.19333Q574.95 278.13083 574.95 275.70895ZM576.02814 275.70895Q576.02814 277.81833 576.52814 278.52145Q577.02814 279.22458 577.7469 279.22458Q578.48126 279.22458 578.96564 278.52145Q579.46564 277.81833 579.46564 275.70895Q579.46564 273.58395 578.96564 272.89645Q578.48126 272.19333 577.73126 272.19333Q577.0125 272.19333 576.575 272.8027Q576.02814 273.58395 576.02814 275.70895Z" fill-rule="nonzero"/><path fill="#ffd966" d="M552.4969 222.42104L552.4969 223.43666L546.8094 223.43666Q546.8094 223.06166 546.9344 222.70229Q547.15314 222.12416 547.6219 221.56166Q548.10626 220.99916 549.0125 220.26479Q550.41876 219.10854 550.90314 218.43666Q551.40314 217.76479 551.40314 217.17104Q551.40314 216.54604 550.95 216.12416Q550.4969 215.68666 549.77814 215.68666Q549.0125 215.68666 548.5594 216.13979Q548.10626 216.59291 548.09064 217.40541L547.0125 217.29604Q547.1219 216.07729 547.84064 215.45229Q548.575 214.81166 549.8094 214.81166Q551.04376 214.81166 551.7625 215.49916Q552.48126 216.18666 552.48126 217.20229Q552.48126 217.71791 552.2625 218.21791Q552.0594 218.70229 551.5594 219.26479Q551.075 219.81166 549.95 220.76479Q548.9969 221.56166 548.71564 221.85854Q548.45 222.13979 548.27814 222.42104L552.4969 222.42104ZM553.95 219.20229Q553.95 217.67104 554.2625 216.74916Q554.575 215.81166 555.1844 215.31166Q555.8094 214.81166 556.7469 214.81166Q557.4344 214.81166 557.95 215.09291Q558.48126 215.37416 558.825 215.90541Q559.16876 216.42104 559.35626 217.17104Q559.54376 217.92104 559.54376 219.20229Q559.54376 220.71791 559.23126 221.63979Q558.9344 222.56166 558.3094 223.07729Q557.7 223.57729 556.7469 223.57729Q555.5125 223.57729 554.79376 222.68666Q553.95 221.62416 553.95 219.20229ZM555.02814 219.20229Q555.02814 221.31166 555.52814 222.01479Q556.02814 222.71791 556.7469 222.71791Q557.48126 222.71791 557.96564 222.01479Q558.46564 221.31166 558.46564 219.20229Q558.46564 217.07729 557.96564 216.38979Q557.48126 215.68666 556.73126 215.68666Q556.0125 215.68666 555.575 216.29604Q555.02814 217.07729 555.02814 219.20229ZM560.95 219.20229Q560.95 217.67104 561.2625 216.74916Q561.575 215.81166 562.1844 215.31166Q562.8094 214.81166 563.7469 214.81166Q564.4344 214.81166 564.95 215.09291Q565.48126 215.37416 565.825 215.90541Q566.16876 216.42104 566.35626 217.17104Q566.54376 217.92104 566.54376 219.20229Q566.54376 220.71791 566.23126 221.63979Q565.9344 222.56166 565.3094 223.07729Q564.7 223.57729 563.7469 223.57729Q562.5125 223.57729 561.79376 222.68666Q560.95 221.62416 560.95 219.20229ZM562.02814 219.20229Q562.02814 221.31166 562.52814 222.01479Q563.02814 222.71791 563.7469 222.71791Q564.48126 222.71791 564.96564 222.01479Q565.46564 221.31166 565.46564 219.20229Q565.46564 217.07729 564.96564 216.38979Q564.48126 215.68666 563.73126 215.68666Q563.0125 215.68666 562.575 216.29604Q562.02814 217.07729 562.02814 219.20229ZM567.95 219.20229Q567.95 217.67104 568.2625 216.74916Q568.575 215.81166 569.1844 215.31166Q569.8094 214.81166 570.7469 214.81166Q571.4344 214.81166 571.95 215.09291Q572.48126 215.37416 572.825 215.90541Q573.16876 216.42104 573.35626 217.17104Q573.54376 217.92104 573.54376 219.20229Q573.54376 220.71791 573.23126 221.63979Q572.9344 222.56166 572.3094 223.07729Q571.7 223.57729 570.7469 223.57729Q569.5125 223.57729 568.79376 222.68666Q567.95 221.62416 567.95 219.20229ZM569.02814 219.20229Q569.02814 221.31166 569.52814 222.01479Q570.02814 222.71791 570.7469 222.71791Q571.48126 222.71791 571.96564 222.01479Q572.46564 221.31166 572.46564 219.20229Q572.46564 217.07729 571.96564 216.38979Q571.48126 215.68666 570.73126 215.68666Q570.0125 215.68666 569.575 216.29604Q569.02814 217.07729 569.02814 219.20229ZM574.95 219.20229Q574.95 217.67104 575.2625 216.74916Q575.575 215.81166 576.1844 215.31166Q576.8094 214.81166 577.7469 214.81166Q578.4344 214.81166 578.95 215.09291Q579.48126 215.37416 579.825 215.90541Q580.16876 216.42104 580.35626 217.17104Q580.54376 217.92104 580.54376 219.20229Q580.54376 220.71791 580.23126 221.63979Q579.9344 222.56166 579.3094 223.07729Q578.7 223.57729 577.7469 223.57729Q576.5125 223.57729 575.79376 222.68666Q574.95 221.62416 574.95 219.20229ZM576.02814 219.20229Q576.02814 221.31166 576.52814 222.01479Q577.02814 222.71791 577.7469 222.71791Q578.48126 222.71791 578.96564 222.01479Q579.46564 221.31166 579.46564 219.20229Q579.46564 217.07729 578.96564 216.38979Q578.48126 215.68666 577.73126 215.68666Q577.0125 215.68666 576.575 216.29604Q576.02814 217.07729 576.02814 219.20229Z" fill-rule="nonzero"/><path fill="#ffd966" d="M546.95 164.66437L548.0125 164.52374Q548.1844 165.41437 548.6219 165.82062Q549.0594 166.21124 549.6844 166.21124Q550.4344 166.21124 550.95 165.69562Q551.46564 165.18 551.46564 164.41437Q551.46564 163.69562 550.98126 163.22687Q550.5125 162.7425 549.77814 162.7425Q549.48126 162.7425 549.02814 162.8675L549.15314 161.93Q549.2625 161.94562 549.325 161.94562Q549.9969 161.94562 550.52814 161.60187Q551.075 161.2425 551.075 160.50812Q551.075 159.93 550.6844 159.555Q550.29376 159.16437 549.66876 159.16437Q549.0594 159.16437 548.6375 159.555Q548.23126 159.94562 548.1219 160.71124L547.0594 160.52374Q547.2469 159.47687 547.9344 158.89874Q548.6219 158.305 549.6375 158.305Q550.34064 158.305 550.9344 158.6175Q551.52814 158.91437 551.84064 159.43Q552.15314 159.94562 552.15314 160.53937Q552.15314 161.08624 551.85626 161.555Q551.5594 162.00812 550.98126 162.27374Q551.73126 162.44562 552.15314 163.00812Q552.575 163.555 552.575 164.39874Q552.575 165.52374 551.7469 166.305Q550.9344 167.08624 549.6844 167.08624Q548.5594 167.08624 547.8094 166.41437Q547.0594 165.72687 546.95 164.66437ZM553.95 162.69562Q553.95 161.16437 554.2625 160.2425Q554.575 159.305 555.1844 158.805Q555.8094 158.305 556.7469 158.305Q557.4344 158.305 557.95 158.58624Q558.48126 158.8675 558.825 159.39874Q559.16876 159.91437 559.35626 160.66437Q559.54376 161.41437 559.54376 162.69562Q559.54376 164.21124 559.23126 165.13312Q558.9344 166.055 558.3094 166.57062Q557.7 167.07062 556.7469 167.07062Q555.5125 167.07062 554.79376 166.18Q553.95 165.1175 553.95 162.69562ZM555.02814 162.69562Q555.02814 164.805 555.52814 165.50812Q556.02814 166.21124 556.7469 166.21124Q557.48126 166.21124 557.96564 165.50812Q558.46564 164.805 558.46564 162.69562Q558.46564 160.57062 557.96564 159.88312Q557.48126 159.18 556.73126 159.18Q556.0125 159.18 555.575 159.78937Q555.02814 160.57062 555.02814 162.69562ZM560.95 162.69562Q560.95 161.16437 561.2625 160.2425Q561.575 159.305 562.1844 158.805Q562.8094 158.305 563.7469 158.305Q564.4344 158.305 564.95 158.58624Q565.48126 158.8675 565.825 159.39874Q566.16876 159.91437 566.35626 160.66437Q566.54376 161.41437 566.54376 162.69562Q566.54376 164.21124 566.23126 165.13312Q565.9344 166.055 565.3094 166.57062Q564.7 167.07062 563.7469 167.07062Q562.5125 167.07062 561.79376 166.18Q560.95 165.1175 560.95 162.69562ZM562.02814 162.69562Q562.02814 164.805 562.52814 165.50812Q563.02814 166.21124 563.7469 166.21124Q564.48126 166.21124 564.96564 165.50812Q565.46564 164.805 565.46564 162.69562Q565.46564 160.57062 564.96564 159.88312Q564.48126 159.18 563.73126 159.18Q563.0125 159.18 562.575 159.78937Q562.02814 160.57062 562.02814 162.69562ZM567.95 162.69562Q567.95 161.16437 568.2625 160.2425Q568.575 159.305 569.1844 158.805Q569.8094 158.305 570.7469 158.305Q571.4344 158.305 571.95 158.58624Q572.48126 158.8675 572.825 159.39874Q573.16876 159.91437 573.35626 160.66437Q573.54376 161.41437 573.54376 162.69562Q573.54376 164.21124 573.23126 165.13312Q572.9344 166.055 572.3094 166.57062Q571.7 167.07062 570.7469 167.07062Q569.5125 167.07062 568.79376 166.18Q567.95 165.1175 567.95 162.69562ZM569.02814 162.69562Q569.02814 164.805 569.52814 165.50812Q570.02814 166.21124 570.7469 166.21124Q571.48126 166.21124 571.96564 165.50812Q572.46564 164.805 572.46564 162.69562Q572.46564 160.57062 571.96564 159.88312Q571.48126 159.18 570.73126 159.18Q570.0125 159.18 569.575 159.78937Q569.02814 160.57062 569.02814 162.69562ZM574.95 162.69562Q574.95 161.16437 575.2625 160.2425Q575.575 159.305 576.1844 158.805Q576.8094 158.305 577.7469 158.305Q578.4344 158.305 578.95 158.58624Q579.48126 158.8675 579.825 159.39874Q580.16876 159.91437 580.35626 160.66437Q580.54376 161.41437 580.54376 162.69562Q580.54376 164.21124 580.23126 165.13312Q579.9344 166.055 579.3094 166.57062Q578.7 167.07062 577.7469 167.07062Q576.5125 167.07062 575.79376 166.18Q574.95 165.1175 574.95 162.69562ZM576.02814 162.69562Q576.02814 164.805 576.52814 165.50812Q577.02814 166.21124 577.7469 166.21124Q578.48126 166.21124 578.96564 165.50812Q579.46564 164.805 579.46564 162.69562Q579.46564 160.57062 578.96564 159.88312Q578.48126 159.18 577.73126 159.18Q577.0125 159.18 576.575 159.78937Q576.02814 160.57062 576.02814 162.69562Z" fill-rule="nonzero"/><path fill="#ffd966" d="M550.325 110.42333L550.325 108.36083L546.60626 108.36083L546.60626 107.39208L550.52814 101.82958L551.3875 101.82958L551.3875 107.39208L552.54376 107.39208L552.54376 108.36083L551.3875 108.36083L551.3875 110.42333L550.325 110.42333ZM550.325 107.39208L550.325 103.53271L547.6375 107.39208L550.325 107.39208ZM553.95 106.18896Q553.95 104.65771 554.2625 103.73583Q554.575 102.79833 555.1844 102.29833Q555.8094 101.79833 556.7469 101.79833Q557.4344 101.79833 557.95 102.07958Q558.48126 102.36083 558.825 102.89208Q559.16876 103.40771 559.35626 104.15771Q559.54376 104.90771 559.54376 106.18896Q559.54376 107.70458 559.23126 108.62646Q558.9344 109.54833 558.3094 110.06396Q557.7 110.56396 556.7469 110.56396Q555.5125 110.56396 554.79376 109.67333Q553.95 108.61083 553.95 106.18896ZM555.02814 106.18896Q555.02814 108.29833 555.52814 109.00146Q556.02814 109.70458 556.7469 109.70458Q557.48126 109.70458 557.96564 109.00146Q558.46564 108.29833 558.46564 106.18896Q558.46564 104.06396 557.96564 103.37646Q557.48126 102.67333 556.73126 102.67333Q556.0125 102.67333 555.575 103.28271Q555.02814 104.06396 555.02814 106.18896ZM560.95 106.18896Q560.95 104.65771 561.2625 103.73583Q561.575 102.79833 562.1844 102.29833Q562.8094 101.79833 563.7469 101.79833Q564.4344 101.79833 564.95 102.07958Q565.48126 102.36083 565.825 102.89208Q566.16876 103.40771 566.35626 104.15771Q566.54376 104.90771 566.54376 106.18896Q566.54376 107.70458 566.23126 108.62646Q565.9344 109.54833 565.3094 110.06396Q564.7 110.56396 563.7469 110.56396Q562.5125 110.56396 561.79376 109.67333Q560.95 108.61083 560.95 106.18896ZM562.02814 106.18896Q562.02814 108.29833 562.52814 109.00146Q563.02814 109.70458 563.7469 109.70458Q564.48126 109.70458 564.96564 109.00146Q565.46564 108.29833 565.46564 106.18896Q565.46564 104.06396 564.96564 103.37646Q564.48126 102.67333 563.73126 102.67333Q563.0125 102.67333 562.575 103.28271Q562.02814 104.06396 562.02814 106.18896ZM567.95 106.18896Q567.95 104.65771 568.2625 103.73583Q568.575 102.79833 569.1844 102.29833Q569.8094 101.79833 570.7469 101.79833Q571.4344 101.79833 571.95 102.07958Q572.48126 102.36083 572.825 102.89208Q573.16876 103.40771 573.35626 104.15771Q573.54376 104.90771 573.54376 106.18896Q573.54376 107.70458 573.23126 108.62646Q572.9344 109.54833 572.3094 110.06396Q571.7 110.56396 570.7469 110.56396Q569.5125 110.56396 568.79376 109.67333Q567.95 108.61083 567.95 106.18896ZM569.02814 106.18896Q569.02814 108.29833 569.52814 109.00146Q570.02814 109.70458 570.7469 109.70458Q571.48126 109.70458 571.96564 109.00146Q572.46564 108.29833 572.46564 106.18896Q572.46564 104.06396 571.96564 103.37646Q571.48126 102.67333 570.73126 102.67333Q570.0125 102.67333 569.575 103.28271Q569.02814 104.06396 569.02814 106.18896ZM574.95 106.18896Q574.95 104.65771 575.2625 103.73583Q575.575 102.79833 576.1844 102.29833Q576.8094 101.79833 577.7469 101.79833Q578.4344 101.79833 578.95 102.07958Q579.48126 102.36083 579.825 102.89208Q580.16876 103.40771 580.35626 104.15771Q580.54376 104.90771 580.54376 106.18896Q580.54376 107.70458 580.23126 108.62646Q579.9344 109.54833 579.3094 110.06396Q578.7 110.56396 577.7469 110.56396Q576.5125 110.56396 575.79376 109.67333Q574.95 108.61083 574.95 106.18896ZM576.02814 106.18896Q576.02814 108.29833 576.52814 109.00146Q577.02814 109.70458 577.7469 109.70458Q578.48126 109.70458 578.96564 109.00146Q579.46564 108.29833 579.46564 106.18896Q579.46564 104.06396 578.96564 103.37646Q578.48126 102.67333 577.73126 102.67333Q577.0125 102.67333 576.575 103.28271Q576.02814 104.06396 576.02814 106.18896Z" fill-rule="nonzero"/><path fill="#ffd966" d="M546.95 51.666668L548.0594 51.572918Q548.1844 52.385418 548.6219 52.791668Q549.075 53.197918 549.71564 53.197918Q550.46564 53.197918 550.9969 52.619793Q551.52814 52.041668 551.52814 51.104168Q551.52814 50.197918 551.0125 49.682293Q550.5125 49.151043 549.6844 49.151043Q549.1844 49.151043 548.7625 49.385418Q548.35626 49.619793 548.1219 49.979168L547.1375 49.854168L547.96564 45.447918L552.2469 45.447918L552.2469 46.447918L548.8094 46.447918L548.35626 48.760418Q549.1219 48.213543 549.96564 48.213543Q551.09064 48.213543 551.85626 48.994793Q552.6375 49.776043 552.6375 51.010418Q552.6375 52.166668 551.96564 53.026043Q551.1375 54.057293 549.71564 54.057293Q548.54376 54.057293 547.79376 53.401043Q547.0594 52.744793 546.95 51.666668ZM553.95 49.682293Q553.95 48.151043 554.2625 47.229168Q554.575 46.291668 555.1844 45.791668Q555.8094 45.291668 556.7469 45.291668Q557.4344 45.291668 557.95 45.572918Q558.48126 45.854168 558.825 46.385418Q559.16876 46.901043 559.35626 47.651043Q559.54376 48.401043 559.54376 49.682293Q559.54376 51.197918 559.23126 52.119793Q558.9344 53.041668 558.3094 53.557293Q557.7 54.057293 556.7469 54.057293Q555.5125 54.057293 554.79376 53.166668Q553.95 52.104168 553.95 49.682293ZM555.02814 49.682293Q555.02814 51.791668 555.52814 52.494793Q556.02814 53.197918 556.7469 53.197918Q557.48126 53.197918 557.96564 52.494793Q558.46564 51.791668 558.46564 49.682293Q558.46564 47.557293 557.96564 46.869793Q557.48126 46.166668 556.73126 46.166668Q556.0125 46.166668 555.575 46.776043Q555.02814 47.557293 555.02814 49.682293ZM560.95 49.682293Q560.95 48.151043 561.2625 47.229168Q561.575 46.291668 562.1844 45.791668Q562.8094 45.291668 563.7469 45.291668Q564.4344 45.291668 564.95 45.572918Q565.48126 45.854168 565.825 46.385418Q566.16876 46.901043 566.35626 47.651043Q566.54376 48.401043 566.54376 49.682293Q566.54376 51.197918 566.23126 52.119793Q565.9344 53.041668 565.3094 53.557293Q564.7 54.057293 563.7469 54.057293Q562.5125 54.057293 561.79376 53.166668Q560.95 52.104168 560.95 49.682293ZM562.02814 49.682293Q562.02814 51.791668 562.52814 52.494793Q563.02814 53.197918 563.7469 53.197918Q564.48126 53.197918 564.96564 52.494793Q565.46564 51.791668 565.46564 49.682293Q565.46564 47.557293 564.96564 46.869793Q564.48126 46.166668 563.73126 46.166668Q563.0125 46.166668 562.575 46.776043Q562.02814 47.557293 562.02814 49.682293ZM567.95 49.682293Q567.95 48.151043 568.2625 47.229168Q568.575 46.291668 569.1844 45.791668Q569.8094 45.291668 570.7469 45.291668Q571.4344 45.291668 571.95 45.572918Q572.48126 45.854168 572.825 46.385418Q573.16876 46.901043 573.35626 47.651043Q573.54376 48.401043 573.54376 49.682293Q573.54376 51.197918 573.23126 52.119793Q572.9344 53.041668 572.3094 53.557293Q571.7 54.057293 570.7469 54.057293Q569.5125 54.057293 568.79376 53.166668Q567.95 52.104168 567.95 49.682293ZM569.02814 49.682293Q569.02814 51.791668 569.52814 52.494793Q570.02814 53.197918 570.7469 53.197918Q571.48126 53.197918 571.96564 52.494793Q572.46564 51.791668 572.46564 49.682293Q572.46564 47.557293 571.96564 46.869793Q571.48126 46.166668 570.73126 46.166668Q570.0125 46.166668 569.575 46.776043Q569.02814 47.557293 569.02814 49.682293ZM574.95 49.682293Q574.95 48.151043 575.2625 47.229168Q575.575 46.291668 576.1844 45.791668Q576.8094 45.291668 577.7469 45.291668Q578.4344 45.291668 578.95 45.572918Q579.48126 45.854168 579.825 46.385418Q580.16876 46.901043 580.35626 47.651043Q580.54376 48.401043 580.54376 49.682293Q580.54376 51.197918 580.23126 52.119793Q579.9344 53.041668 579.3094 53.557293Q578.7 54.057293 577.7469 54.057293Q576.5125 54.057293 575.79376 53.166668Q574.95 52.104168 574.95 49.682293ZM576.02814 49.682293Q576.02814 51.791668 576.52814 52.494793Q577.02814 53.197918 577.7469 53.197918Q578.48126 53.197918 578.96564 52.494793Q579.46564 51.791668 579.46564 49.682293Q579.46564 47.557293 578.96564 46.869793Q578.48126 46.166668 577.73126 46.166668Q577.0125 46.166668 576.575 46.776043Q576.02814 47.557293 576.02814 49.682293Z" fill-rule="nonzero"/><path fill="#ffffff" d="M131.42188 349.45L131.42188 340.85626L132.57812 340.85626L137.09375 347.60626L137.09375 340.85626L138.1875 340.85626L138.1875 349.45L137.01562 349.45L132.5 342.7L132.5 349.45L131.42188 349.45ZM144.35938 348.6844Q143.76562 349.1844 143.21875 349.3875Q142.6875 349.59064 142.0625 349.59064Q141.03125 349.59064 140.48438 349.09064Q139.9375 348.59064 139.9375 347.8094Q139.9375 347.35626 140.14062 346.98126Q140.34375 346.59064 140.6875 346.3719Q141.03125 346.1375 141.45312 346.02814Q141.75 345.9344 142.39062 345.85626Q143.65625 345.71564 144.26562 345.4969Q144.26562 345.27814 144.26562 345.23126Q144.26562 344.575 143.96875 344.3094Q143.5625 343.96564 142.76562 343.96564Q142.03125 343.96564 141.67188 344.23126Q141.3125 344.48126 141.14062 345.1375L140.10938 344.9969Q140.25 344.34064 140.57812 343.9344Q140.90625 343.52814 141.51562 343.3094Q142.125 343.09064 142.92188 343.09064Q143.71875 343.09064 144.21875 343.27814Q144.71875 343.46564 144.95312 343.7469Q145.1875 344.02814 145.28125 344.46564Q145.32812 344.73126 145.32812 345.4344L145.32812 346.84064Q145.32812 348.3094 145.39062 348.7Q145.46875 349.09064 145.67188 349.45L144.5625 349.45Q144.40625 349.1219 144.35938 348.6844ZM144.26562 346.325Q143.6875 346.5594 142.54688 346.73126Q141.89062 346.825 141.625 346.95Q141.35938 347.0594 141.20312 347.27814Q141.0625 347.4969 141.0625 347.77814Q141.0625 348.2 141.375 348.48126Q141.70312 348.7625 142.3125 348.7625Q142.92188 348.7625 143.39062 348.4969Q143.875 348.23126 144.09375 347.7625Q144.26562 347.40314 144.26562 346.71564L144.26562 346.325ZM149.01562 349.45L146.65625 343.23126L147.76562 343.23126L149.10938 346.95Q149.3125 347.5594 149.5 348.2Q149.64062 347.71564 149.89062 347.02814L151.28125 343.23126L152.35938 343.23126L150.0 349.45L149.01562 349.45ZM152.29688 342.075L152.29688 340.85626L153.35938 340.85626L153.35938 342.075L152.29688 342.075ZM152.29688 349.45L152.29688 343.23126L153.35938 343.23126L153.35938 349.45L152.29688 349.45ZM159.54688 347.45L160.64062 347.575Q160.39062 348.52814 159.6875 349.0594Q158.98438 349.59064 157.90625 349.59064Q156.54688 349.59064 155.73438 348.7469Q154.9375 347.90314 154.9375 346.3875Q154.9375 344.825 155.75 343.96564Q156.5625 343.09064 157.84375 343.09064Q159.09375 343.09064 159.875 343.9344Q160.67188 344.77814 160.67188 346.325Q160.67188 346.41876 160.67188 346.60626L156.03125 346.60626Q156.09375 347.6375 156.60938 348.1844Q157.125 348.71564 157.90625 348.71564Q158.48438 348.71564 158.89062 348.41876Q159.3125 348.10626 159.54688 347.45ZM156.09375 345.7469L159.5625 345.7469Q159.5 344.95 159.17188 344.5594Q158.65625 343.95 157.85938 343.95Q157.125 343.95 156.625 344.4344Q156.14062 344.91876 156.09375 345.7469Z" fill-rule="nonzero"/><path fill="#ffffff" d="M223.8802 346.6844L224.9427 346.59064Q225.02083 347.2469 225.30208 347.65314Q225.58333 348.0594 226.16145 348.325Q226.7552 348.575 227.48958 348.575Q228.1302 348.575 228.6302 348.3875Q229.1302 348.1844 229.36458 347.85626Q229.61458 347.5125 229.61458 347.1219Q229.61458 346.71564 229.3802 346.41876Q229.14583 346.10626 228.61458 345.90314Q228.2552 345.7625 227.0677 345.48126Q225.89583 345.2 225.42708 344.95Q224.80208 344.6219 224.5052 344.15314Q224.20833 343.66876 224.20833 343.075Q224.20833 342.4344 224.5677 341.8719Q224.9427 341.29376 225.64583 341.0125Q226.36458 340.71564 227.22395 340.71564Q228.17708 340.71564 228.91145 341.02814Q229.64583 341.325 230.03645 341.9344Q230.42708 342.52814 230.45833 343.27814L229.36458 343.35626Q229.27083 342.54376 228.7552 342.1375Q228.2552 341.71564 227.27083 341.71564Q226.23958 341.71564 225.77083 342.09064Q225.30208 342.46564 225.30208 342.9969Q225.30208 343.46564 225.6302 343.7625Q225.95833 344.0594 227.33333 344.3719Q228.72395 344.6844 229.23958 344.91876Q229.98958 345.27814 230.34895 345.8094Q230.70833 346.325 230.70833 347.02814Q230.70833 347.71564 230.3177 348.325Q229.92708 348.91876 229.1927 349.2625Q228.45833 349.59064 227.53645 349.59064Q226.36458 349.59064 225.5677 349.2625Q224.78645 348.91876 224.33333 348.23126Q223.89583 347.54376 223.8802 346.6844ZM233.7552 349.45L231.47395 340.85626L232.64583 340.85626L233.95833 346.4969Q234.16145 347.3719 234.3177 348.2469Q234.64583 346.8719 234.70833 346.65314L236.33333 340.85626L237.70833 340.85626L238.9427 345.2Q239.39583 346.825 239.61458 348.2469Q239.77083 347.4344 240.03645 346.3719L241.3802 340.85626L242.52083 340.85626L240.17708 349.45L239.0677 349.45L237.27083 342.90314Q237.03645 342.09064 236.98958 341.90314Q236.86458 342.48126 236.73958 342.90314L234.92708 349.45L233.7552 349.45ZM243.28645 349.45L243.28645 340.85626L249.48958 340.85626L249.48958 341.8719L244.42708 341.8719L244.42708 344.4969L249.17708 344.4969L249.17708 345.5125L244.42708 345.5125L244.42708 348.4344L249.6927 348.4344L249.6927 349.45L243.28645 349.45ZM253.91145 345.2625Q253.91145 343.1219 255.05208 341.91876Q256.2083 340.7 258.0208 340.7Q259.22394 340.7 260.17706 341.27814Q261.1302 341.84064 261.6302 342.85626Q262.1302 343.8719 262.1302 345.16876Q262.1302 346.46564 261.59894 347.4969Q261.0677 348.52814 260.09894 349.0594Q259.1458 349.59064 258.0208 349.59064Q256.80206 349.59064 255.84895 349.0125Q254.89583 348.41876 254.39583 347.41876Q253.91145 346.40314 253.91145 345.2625ZM255.08333 345.27814Q255.08333 346.84064 255.91145 347.73126Q256.7552 348.6219 258.0208 348.6219Q259.30206 348.6219 260.1302 347.73126Q260.9583 346.825 260.9583 345.15314Q260.9583 344.10626 260.59894 343.325Q260.2552 342.54376 259.5677 342.1219Q258.8802 341.6844 258.03644 341.6844Q256.8333 341.6844 255.95833 342.5125Q255.08333 343.34064 255.08333 345.27814ZM263.1302 351.84064L263.1302 343.23126L264.0833 343.23126L264.0833 344.02814Q264.42706 343.5594 264.84894 343.325Q265.28644 343.09064 265.8958 343.09064Q266.6927 343.09064 267.30206 343.4969Q267.91144 343.90314 268.2083 344.65314Q268.5208 345.40314 268.5208 346.29376Q268.5208 347.2469 268.17706 348.0125Q267.84894 348.77814 267.1927 349.1844Q266.53644 349.59064 265.8177 349.59064Q265.28644 349.59064 264.86456 349.3719Q264.4427 349.1375 264.17706 348.8094L264.17706 351.84064L263.1302 351.84064ZM264.0833 346.3719Q264.0833 347.575 264.5677 348.15314Q265.05206 348.71564 265.73956 348.71564Q266.4427 348.71564 266.9427 348.1219Q267.4427 347.52814 267.4427 346.27814Q267.4427 345.09064 266.9583 344.5125Q266.47394 343.91876 265.78644 343.91876Q265.11456 343.91876 264.59894 344.54376Q264.0833 345.16876 264.0833 346.3719ZM274.2083 349.45L274.2083 348.52814Q273.47394 349.59064 272.22394 349.59064Q271.67706 349.59064 271.1927 349.3875Q270.72394 349.16876 270.48956 348.85626Q270.2552 348.52814 270.16144 348.0594Q270.09894 347.7625 270.09894 347.075L270.09894 343.23126L271.16144 343.23126L271.16144 346.6844Q271.16144 347.4969 271.22394 347.79376Q271.3177 348.2 271.6302 348.45Q271.9583 348.6844 272.4427 348.6844Q272.91144 348.6844 273.3177 348.45Q273.73956 348.2 273.91144 347.77814Q274.09894 347.35626 274.09894 346.5594L274.09894 343.23126L275.1458 343.23126L275.1458 349.45L274.2083 349.45ZM276.7083 347.59064L277.73956 347.4344Q277.8333 348.0594 278.22394 348.3875Q278.6302 348.71564 279.36456 348.71564Q280.0833 348.71564 280.42706 348.4344Q280.78644 348.1375 280.78644 347.73126Q280.78644 347.3719 280.47394 347.16876Q280.2552 347.02814 279.3958 346.8094Q278.23956 346.5125 277.78644 346.3094Q277.34894 346.09064 277.11456 345.71564Q276.8802 345.34064 276.8802 344.8719Q276.8802 344.46564 277.0677 344.10626Q277.2552 343.7469 277.5833 343.5125Q277.8333 343.34064 278.2552 343.21564Q278.67706 343.09064 279.17706 343.09064Q279.8958 343.09064 280.4427 343.3094Q281.0052 343.5125 281.2708 343.8719Q281.53644 344.23126 281.6302 344.825L280.59894 344.96564Q280.53644 344.4969 280.1927 344.23126Q279.86456 343.95 279.23956 343.95Q278.5208 343.95 278.2083 344.2Q277.8958 344.4344 277.8958 344.7625Q277.8958 344.96564 278.0208 345.1219Q278.16144 345.29376 278.42706 345.40314Q278.5833 345.46564 279.36456 345.66876Q280.48956 345.98126 280.92706 346.16876Q281.36456 346.35626 281.61456 346.71564Q281.86456 347.075 281.86456 347.6219Q281.86456 348.15314 281.55206 348.6219Q281.2552 349.075 280.67706 349.34064Q280.09894 349.59064 279.36456 349.59064Q278.1458 349.59064 277.5052 349.09064Q276.8802 348.575 276.7083 347.59064Z" fill-rule="nonzero"/><path fill="#ffffff" d="M317.21353 346.6844L318.27603 346.59064Q318.35416 347.2469 318.6354 347.65314Q318.91666 348.0594 319.49478 348.325Q320.08853 348.575 320.8229 348.575Q321.46353 348.575 321.96353 348.3875Q322.46353 348.1844 322.6979 347.85626Q322.9479 347.5125 322.9479 347.1219Q322.9479 346.71564 322.71353 346.41876Q322.47916 346.10626 321.9479 345.90314Q321.58853 345.7625 320.40103 345.48126Q319.22916 345.2 318.7604 344.95Q318.1354 344.6219 317.83853 344.15314Q317.54166 343.66876 317.54166 343.075Q317.54166 342.4344 317.90103 341.8719Q318.27603 341.29376 318.97916 341.0125Q319.6979 340.71564 320.55728 340.71564Q321.5104 340.71564 322.24478 341.02814Q322.97916 341.325 323.36978 341.9344Q323.7604 342.52814 323.79166 343.27814L322.6979 343.35626Q322.60416 342.54376 322.08853 342.1375Q321.58853 341.71564 320.60416 341.71564Q319.5729 341.71564 319.10416 342.09064Q318.6354 342.46564 318.6354 342.9969Q318.6354 343.46564 318.96353 343.7625Q319.29166 344.0594 320.66666 344.3719Q322.05728 344.6844 322.5729 344.91876Q323.3229 345.27814 323.68228 345.8094Q324.04166 346.325 324.04166 347.02814Q324.04166 347.71564 323.65103 348.325Q323.2604 348.91876 322.52603 349.2625Q321.79166 349.59064 320.86978 349.59064Q319.6979 349.59064 318.90103 349.2625Q318.11978 348.91876 317.66666 348.23126Q317.22916 347.54376 317.21353 346.6844ZM327.08853 349.45L324.80728 340.85626L325.97916 340.85626L327.29166 346.4969Q327.49478 347.3719 327.65103 348.2469Q327.97916 346.8719 328.04166 346.65314L329.66666 340.85626L331.04166 340.85626L332.27603 345.2Q332.72916 346.825 332.9479 348.2469Q333.10416 347.4344 333.36978 346.3719L334.71353 340.85626L335.85416 340.85626L333.5104 349.45L332.40103 349.45L330.60416 342.90314Q330.36978 342.09064 330.3229 341.90314Q330.1979 342.48126 330.0729 342.90314L328.2604 349.45L327.08853 349.45ZM336.61978 349.45L336.61978 340.85626L342.8229 340.85626L342.8229 341.8719L337.7604 341.8719L337.7604 344.4969L342.5104 344.4969L342.5104 345.5125L337.7604 345.5125L337.7604 348.4344L343.02603 348.4344L343.02603 349.45L336.61978 349.45ZM346.65103 349.45L349.9479 340.85626L351.16666 340.85626L354.68228 349.45L353.40103 349.45L352.3854 346.84064L348.80728 346.84064L347.85416 349.45L346.65103 349.45ZM349.1354 345.91876L352.04166 345.91876L351.15103 343.54376Q350.72916 342.46564 350.54166 341.7625Q350.36978 342.59064 350.0729 343.40314L349.1354 345.91876ZM354.2604 349.96564L355.29166 350.1219Q355.35416 350.59064 355.65103 350.8094Q356.04166 351.10626 356.71353 351.10626Q357.4479 351.10626 357.83853 350.8094Q358.24478 350.5125 358.3854 349.9969Q358.47916 349.66876 358.46353 348.6375Q357.77603 349.45 356.74478 349.45Q355.46353 349.45 354.7604 348.52814Q354.05728 347.59064 354.05728 346.3094Q354.05728 345.41876 354.36978 344.66876Q354.6979 343.90314 355.30728 343.4969Q355.91666 343.09064 356.74478 343.09064Q357.85416 343.09064 358.5729 343.98126L358.5729 343.23126L359.54166 343.23126L359.54166 348.60626Q359.54166 350.0594 359.24478 350.66876Q358.9479 351.27814 358.30728 351.6219Q357.66666 351.98126 356.72916 351.98126Q355.61978 351.98126 354.93228 351.48126Q354.24478 350.98126 354.2604 349.96564ZM355.1354 346.23126Q355.1354 347.45 355.61978 348.0125Q356.10416 348.575 356.83853 348.575Q357.5729 348.575 358.05728 348.0125Q358.55728 347.45 358.55728 346.2625Q358.55728 345.1219 358.04166 344.54376Q357.54166 343.96564 356.8229 343.96564Q356.11978 343.96564 355.61978 344.54376Q355.1354 345.10626 355.1354 346.23126ZM365.71353 347.45L366.80728 347.575Q366.55728 348.52814 365.85416 349.0594Q365.15103 349.59064 364.0729 349.59064Q362.71353 349.59064 361.90103 348.7469Q361.10416 347.90314 361.10416 346.3875Q361.10416 344.825 361.91666 343.96564Q362.72916 343.09064 364.0104 343.09064Q365.2604 343.09064 366.04166 343.9344Q366.83853 344.77814 366.83853 346.325Q366.83853 346.41876 366.83853 346.60626L362.1979 346.60626Q362.2604 347.6375 362.77603 348.1844Q363.29166 348.71564 364.0729 348.71564Q364.65103 348.71564 365.05728 348.41876Q365.47916 348.10626 365.71353 347.45ZM362.2604 345.7469L365.72916 345.7469Q365.66666 344.95 365.33853 344.5594Q364.8229 343.95 364.02603 343.95Q363.29166 343.95 362.79166 344.4344Q362.30728 344.91876 362.2604 345.7469ZM368.46353 349.45L368.46353 343.23126L369.40103 343.23126L369.40103 344.10626Q370.08853 343.09064 371.3854 343.09064Q371.9479 343.09064 372.41666 343.29376Q372.90103 343.4969 373.1354 343.825Q373.36978 344.15314 373.46353 344.59064Q373.5104 344.8875 373.5104 345.6219L373.5104 349.45L372.46353 349.45L372.46353 345.66876Q372.46353 345.0125 372.33853 344.7Q372.21353 344.3875 371.90103 344.2Q371.58853 343.9969 371.16666 343.9969Q370.49478 343.9969 369.99478 344.4344Q369.5104 344.85626 369.5104 346.04376L369.5104 349.45L368.46353 349.45ZM377.7604 348.5125L377.91666 349.4344Q377.46353 349.52814 377.11978 349.52814Q376.54166 349.52814 376.22916 349.35626Q375.91666 349.16876 375.77603 348.8719Q375.65103 348.575 375.65103 347.6219L375.65103 344.04376L374.8854 344.04376L374.8854 343.23126L375.65103 343.23126L375.65103 341.6844L376.6979 341.0594L376.6979 343.23126L377.7604 343.23126L377.7604 344.04376L376.6979 344.04376L376.6979 347.6844Q376.6979 348.1375 376.74478 348.2625Q376.80728 348.3875 376.93228 348.46564Q377.05728 348.54376 377.29166 348.54376Q377.47916 348.54376 377.7604 348.5125ZM385.61978 346.075L385.61978 345.075L389.24478 345.0594L389.24478 348.2469Q388.41666 348.91876 387.52603 349.2625Q386.6354 349.59064 385.6979 349.59064Q384.43228 349.59064 383.3854 349.0594Q382.35416 348.5125 381.8229 347.4969Q381.30728 346.46564 381.30728 345.2Q381.30728 343.9344 381.8229 342.85626Q382.35416 341.7625 383.33853 341.2469Q384.3229 340.71564 385.60416 340.71564Q386.54166 340.71564 387.29166 341.0125Q388.04166 341.3094 388.46353 341.85626Q388.90103 342.3875 389.11978 343.2625L388.10416 343.54376Q387.90103 342.8875 387.60416 342.5125Q387.3229 342.1375 386.79166 341.91876Q386.2604 341.6844 385.61978 341.6844Q384.83853 341.6844 384.2604 341.91876Q383.6979 342.15314 383.33853 342.54376Q382.99478 342.9344 382.80728 343.40314Q382.47916 344.2 382.47916 345.1219Q382.47916 346.27814 382.86978 347.0594Q383.27603 347.825 384.02603 348.2Q384.77603 348.575 385.6354 348.575Q386.36978 348.575 387.0729 348.29376Q387.77603 347.9969 388.1354 347.6844L388.1354 346.075L385.61978 346.075ZM390.58853 349.45L390.58853 340.85626L393.83853 340.85626Q394.68228 340.85626 395.1354 340.9344Q395.77603 341.04376 396.1979 341.34064Q396.6354 341.6375 396.8854 342.16876Q397.15103 342.7 397.15103 343.34064Q397.15103 344.4344 396.4479 345.2Q395.7604 345.95 393.93228 345.95L391.72916 345.95L391.72916 349.45L390.58853 349.45ZM391.72916 344.95L393.9479 344.95Q395.05728 344.95 395.5104 344.54376Q395.97916 344.1219 395.97916 343.3719Q395.97916 342.84064 395.6979 342.46564Q395.43228 342.075 394.99478 341.95Q394.6979 341.8719 393.93228 341.8719L391.72916 341.8719L391.72916 344.95ZM400.77603 349.45L400.77603 341.8719L397.9479 341.8719L397.9479 340.85626L404.7604 340.85626L404.7604 341.8719L401.91666 341.8719L401.91666 349.45L400.77603 349.45Z" fill-rule="nonzero"/><path fill="#ffffff" d="M431.98438 349.45L431.98438 340.85626L437.78125 340.85626L437.78125 341.8719L433.125 341.8719L433.125 344.52814L437.15625 344.52814L437.15625 345.54376L433.125 345.54376L433.125 349.45L431.98438 349.45ZM442.85938 348.6844Q442.26562 349.1844 441.71875 349.3875Q441.1875 349.59064 440.5625 349.59064Q439.53125 349.59064 438.98438 349.09064Q438.4375 348.59064 438.4375 347.8094Q438.4375 347.35626 438.64062 346.98126Q438.84375 346.59064 439.1875 346.3719Q439.53125 346.1375 439.95312 346.02814Q440.25 345.9344 440.89062 345.85626Q442.15625 345.71564 442.76562 345.4969Q442.76562 345.27814 442.76562 345.23126Q442.76562 344.575 442.46875 344.3094Q442.0625 343.96564 441.26562 343.96564Q440.53125 343.96564 440.17188 344.23126Q439.8125 344.48126 439.64062 345.1375L438.60938 344.9969Q438.75 344.34064 439.07812 343.9344Q439.40625 343.52814 440.01562 343.3094Q440.625 343.09064 441.42188 343.09064Q442.21875 343.09064 442.71875 343.27814Q443.21875 343.46564 443.45312 343.7469Q443.6875 344.02814 443.78125 344.46564Q443.82812 344.73126 443.82812 345.4344L443.82812 346.84064Q443.82812 348.3094 443.89062 348.7Q443.96875 349.09064 444.17188 349.45L443.0625 349.45Q442.90625 349.1219 442.85938 348.6844ZM442.76562 346.325Q442.1875 346.5594 441.04688 346.73126Q440.39062 346.825 440.125 346.95Q439.85938 347.0594 439.70312 347.27814Q439.5625 347.4969 439.5625 347.77814Q439.5625 348.2 439.875 348.48126Q440.20312 348.7625 440.8125 348.7625Q441.42188 348.7625 441.89062 348.4969Q442.375 348.23126 442.59375 347.7625Q442.76562 347.40314 442.76562 346.71564L442.76562 346.325ZM449.85938 347.16876L450.89062 347.3094Q450.71875 348.3719 450.01562 348.98126Q449.3125 349.59064 448.29688 349.59064Q447.01562 349.59064 446.23438 348.7625Q445.46875 347.91876 445.46875 346.35626Q445.46875 345.35626 445.79688 344.60626Q446.14062 343.84064 446.8125 343.46564Q447.5 343.09064 448.3125 343.09064Q449.3125 343.09064 449.95312 343.60626Q450.60938 344.10626 450.79688 345.0594L449.76562 345.21564Q449.625 344.59064 449.25 344.27814Q448.875 343.95 448.34375 343.95Q447.54688 343.95 447.04688 344.52814Q446.54688 345.09064 446.54688 346.325Q446.54688 347.59064 447.03125 348.15314Q447.51562 348.71564 448.28125 348.71564Q448.90625 348.71564 449.3125 348.34064Q449.73438 347.96564 449.85938 347.16876ZM454.09375 348.5125L454.25 349.4344Q453.79688 349.52814 453.45312 349.52814Q452.875 349.52814 452.5625 349.35626Q452.25 349.16876 452.10938 348.8719Q451.98438 348.575 451.98438 347.6219L451.98438 344.04376L451.21875 344.04376L451.21875 343.23126L451.98438 343.23126L451.98438 341.6844L453.03125 341.0594L453.03125 343.23126L454.09375 343.23126L454.09375 344.04376L453.03125 344.04376L453.03125 347.6844Q453.03125 348.1375 453.07812 348.2625Q453.14062 348.3875 453.26562 348.46564Q453.39062 348.54376 453.625 348.54376Q453.8125 348.54376 454.09375 348.5125ZM454.40625 346.34064Q454.40625 344.60626 455.35938 343.77814Q456.15625 343.09064 457.3125 343.09064Q458.59375 343.09064 459.40625 343.9344Q460.23438 344.7625 460.23438 346.2469Q460.23438 347.45 459.875 348.1375Q459.51562 348.825 458.8125 349.21564Q458.125 349.59064 457.3125 349.59064Q456.01562 349.59064 455.20312 348.7625Q454.40625 347.91876 454.40625 346.34064ZM455.48438 346.34064Q455.48438 347.52814 456.0 348.1219Q456.53125 348.71564 457.3125 348.71564Q458.10938 348.71564 458.625 348.1219Q459.14062 347.52814 459.14062 346.3094Q459.14062 345.15314 458.60938 344.5594Q458.09375 343.96564 457.3125 343.96564Q456.53125 343.96564 456.0 344.5594Q455.48438 345.1375 455.48438 346.34064ZM461.78125 349.45L461.78125 343.23126L462.73438 343.23126L462.73438 344.16876Q463.09375 343.5125 463.39062 343.3094Q463.70312 343.09064 464.07812 343.09064Q464.60938 343.09064 465.15625 343.41876L464.79688 344.40314Q464.40625 344.16876 464.03125 344.16876Q463.67188 344.16876 463.39062 344.3875Q463.125 344.59064 463.01562 344.96564Q462.82812 345.52814 462.82812 346.1844L462.82812 349.45L461.78125 349.45ZM465.75 351.84064L465.625 350.85626Q465.96875 350.95 466.23438 350.95Q466.57812 350.95 466.78125 350.825Q467.0 350.71564 467.14062 350.5125Q467.23438 350.34064 467.46875 349.71564Q467.48438 349.6375 467.5625 349.46564L465.1875 343.23126L466.32812 343.23126L467.625 346.825Q467.875 347.5125 468.07812 348.27814Q468.26562 347.54376 468.51562 346.85626L469.84375 343.23126L470.89062 343.23126L468.53125 349.5594Q468.14062 350.575 467.9375 350.96564Q467.65625 351.4969 467.28125 351.73126Q466.92188 351.98126 466.42188 351.98126Q466.125 351.98126 465.75 351.84064ZM470.92188 349.45L470.92188 340.85626L473.89062 340.85626Q474.89062 340.85626 475.42188 340.98126Q476.15625 341.15314 476.67188 341.59064Q477.35938 342.16876 477.6875 343.075Q478.03125 343.96564 478.03125 345.10626Q478.03125 346.09064 477.79688 346.84064Q477.57812 347.59064 477.21875 348.09064Q476.85938 348.59064 476.42188 348.8719Q476.0 349.15314 475.40625 349.3094Q474.8125 349.45 474.03125 349.45L470.92188 349.45ZM472.0625 348.4344L473.89062 348.4344Q474.75 348.4344 475.23438 348.27814Q475.71875 348.1219 476.0 347.825Q476.40625 347.4344 476.625 346.7469Q476.85938 346.0594 476.85938 345.09064Q476.85938 343.7469 476.40625 343.02814Q475.96875 342.29376 475.34375 342.04376Q474.875 341.8719 473.875 341.8719L472.0625 341.8719L472.0625 348.4344ZM479.78125 349.45L479.78125 343.23126L480.73438 343.23126L480.73438 344.16876Q481.09375 343.5125 481.39062 343.3094Q481.70312 343.09064 482.07812 343.09064Q482.60938 343.09064 483.15625 343.41876L482.79688 344.40314Q482.40625 344.16876 482.03125 344.16876Q481.67188 344.16876 481.39062 344.3875Q481.125 344.59064 481.01562 344.96564Q480.82812 345.52814 480.82812 346.1844L480.82812 349.45L479.78125 349.45ZM483.40625 346.34064Q483.40625 344.60626 484.35938 343.77814Q485.15625 343.09064 486.3125 343.09064Q487.59375 343.09064 488.40625 343.9344Q489.23438 344.7625 489.23438 346.2469Q489.23438 347.45 488.875 348.1375Q488.51562 348.825 487.8125 349.21564Q487.125 349.59064 486.3125 349.59064Q485.01562 349.59064 484.20312 348.7625Q483.40625 347.91876 483.40625 346.34064ZM484.48438 346.34064Q484.48438 347.52814 485.0 348.1219Q485.53125 348.71564 486.3125 348.71564Q487.10938 348.71564 487.625 348.1219Q488.14062 347.52814 488.14062 346.3094Q488.14062 345.15314 487.60938 344.5594Q487.09375 343.96564 486.3125 343.96564Q485.53125 343.96564 485.0 344.5594Q484.48438 345.1375 484.48438 346.34064ZM490.79688 342.075L490.79688 340.85626L491.85938 340.85626L491.85938 342.075L490.79688 342.075ZM490.79688 349.45L490.79688 343.23126L491.85938 343.23126L491.85938 349.45L490.79688 349.45ZM497.82812 349.45L497.82812 348.66876Q497.23438 349.59064 496.09375 349.59064Q495.34375 349.59064 494.71875 349.1844Q494.09375 348.7625 493.75 348.02814Q493.40625 347.29376 493.40625 346.34064Q493.40625 345.41876 493.71875 344.65314Q494.03125 343.8875 494.65625 343.4969Q495.28125 343.09064 496.04688 343.09064Q496.60938 343.09064 497.04688 343.325Q497.48438 343.5594 497.76562 343.9344L497.76562 340.85626L498.8125 340.85626L498.8125 349.45L497.82812 349.45ZM494.5 346.34064Q494.5 347.54376 495.0 348.1375Q495.5 348.71564 496.1875 348.71564Q496.875 348.71564 497.35938 348.15314Q497.84375 347.59064 497.84375 346.4344Q497.84375 345.15314 497.34375 344.5594Q496.85938 343.96564 496.14062 343.96564Q495.4375 343.96564 494.96875 344.54376Q494.5 345.10626 494.5 346.34064ZM500.375 342.4344L500.64062 341.60626Q501.57812 341.9344 502.0 342.16876Q501.89062 341.10626 501.875 340.71564L502.73438 340.71564Q502.71875 341.29376 502.59375 342.16876Q503.20312 341.85626 503.98438 341.60626L504.25 342.4344Q503.5 342.6844 502.79688 342.7625Q503.14062 343.075 503.79688 343.8719L503.09375 344.3719Q502.75 343.90314 502.29688 343.10626Q501.85938 343.9344 501.53125 344.3719L500.84375 343.8719Q501.51562 343.02814 501.8125 342.7625Q501.0625 342.6219 500.375 342.4344Z" fill-rule="nonzero"/><path fill="#049595" d="M181.95703 20.55C181.95703 19.997715 182.40474 19.55 182.95703 19.55L192.95703 19.55C193.50932 19.55 193.95703 19.997715 193.95703 20.55L193.95703 30.55C193.95703 31.102285 193.50932 31.55 192.95703 31.55L182.95703 31.55C182.40474 31.55 181.95703 31.102285 181.95703 30.55Z" fill-rule="nonzero"/><path fill="#ffffff" d="M202.8789 29.55L202.8789 20.95625L206.1289 20.95625Q206.97266 20.95625 207.42578 21.034374Q208.0664 21.14375 208.48828 21.440624Q208.92578 21.7375 209.17578 22.26875Q209.4414 22.8 209.4414 23.440624Q209.4414 24.534374 208.73828 25.3Q208.05078 26.05 206.22266 26.05L204.01953 26.05L204.01953 29.55L202.8789 29.55ZM204.01953 25.05L206.23828 25.05Q207.34766 25.05 207.80078 24.64375Q208.26953 24.221874 208.26953 23.471874Q208.26953 22.940624 207.98828 22.565624Q207.72266 22.175 207.28516 22.05Q206.98828 21.971874 206.22266 21.971874L204.01953 21.971874L204.01953 25.05ZM210.73828 29.55L210.73828 23.33125L211.6914 23.33125L211.6914 24.26875Q212.05078 23.6125 212.34766 23.409374Q212.66016 23.190624 213.03516 23.190624Q213.5664 23.190624 214.11328 23.51875L213.7539 24.503124Q213.36328 24.26875 212.98828 24.26875Q212.6289 24.26875 212.34766 24.4875Q212.08203 24.690624 211.97266 25.065624Q211.78516 25.628124 211.78516 26.284374L211.78516 29.55L210.73828 29.55ZM214.36328 26.440624Q214.36328 24.70625 215.3164 23.878124Q216.11328 23.190624 217.26953 23.190624Q218.55078 23.190624 219.36328 24.034374Q220.1914 24.8625 220.1914 26.346874Q220.1914 27.55 219.83203 28.2375Q219.47266 28.925 218.76953 29.315624Q218.08203 29.690624 217.26953 29.690624Q215.97266 29.690624 215.16016 28.8625Q214.36328 28.01875 214.36328 26.440624ZM215.4414 26.440624Q215.4414 27.628124 215.95703 28.221874Q216.48828 28.815624 217.26953 28.815624Q218.0664 28.815624 218.58203 28.221874Q219.09766 27.628124 219.09766 26.409374Q219.09766 25.253124 218.5664 24.659374Q218.05078 24.065624 217.26953 24.065624Q216.48828 24.065624 215.95703 24.659374Q215.4414 25.2375 215.4414 26.440624ZM221.7539 29.55L221.7539 23.33125L222.6914 23.33125L222.6914 24.20625Q222.98828 23.7375 223.47266 23.471874Q223.95703 23.190624 224.58203 23.190624Q225.26953 23.190624 225.70703 23.471874Q226.16016 23.753124 226.33203 24.26875Q227.08203 23.190624 228.2539 23.190624Q229.1914 23.190624 229.67578 23.70625Q230.17578 24.20625 230.17578 25.284374L230.17578 29.55L229.1289 29.55L229.1289 25.628124Q229.1289 25.003124 229.01953 24.721874Q228.92578 24.440624 228.66016 24.26875Q228.39453 24.096874 228.01953 24.096874Q227.36328 24.096874 226.92578 24.534374Q226.5039 24.971874 226.5039 25.940624L226.5039 29.55L225.4414 29.55L225.4414 25.503124Q225.4414 24.8 225.17578 24.45625Q224.92578 24.096874 224.34766 24.096874Q223.89453 24.096874 223.51953 24.33125Q223.14453 24.565624 222.97266 25.01875Q222.80078 25.471874 222.80078 26.315624L222.80078 29.55L221.7539 29.55ZM232.7539 31.940624L232.7539 23.33125L233.70703 23.33125L233.70703 24.128124Q234.05078 23.659374 234.47266 23.425Q234.91016 23.190624 235.51953 23.190624Q236.3164 23.190624 236.92578 23.596874Q237.53516 24.003124 237.83203 24.753124Q238.14453 25.503124 238.14453 26.39375Q238.14453 27.346874 237.80078 28.1125Q237.47266 28.878124 236.8164 29.284374Q236.16016 29.690624 235.4414 29.690624Q234.91016 29.690624 234.48828 29.471874Q234.0664 29.2375 233.80078 28.909374L233.80078 31.940624L232.7539 31.940624ZM233.70703 26.471874Q233.70703 27.675 234.1914 28.253124Q234.67578 28.815624 235.36328 28.815624Q236.0664 28.815624 236.5664 28.221874Q237.0664 27.628124 237.0664 26.378124Q237.0664 25.190624 236.58203 24.6125Q236.09766 24.01875 235.41016 24.01875Q234.73828 24.01875 234.22266 24.64375Q233.70703 25.26875 233.70703 26.471874ZM242.05078 28.6125L242.20703 29.534374Q241.7539 29.628124 241.41016 29.628124Q240.83203 29.628124 240.51953 29.45625Q240.20703 29.26875 240.0664 28.971874Q239.9414 28.675 239.9414 27.721874L239.9414 24.14375L239.17578 24.14375L239.17578 23.33125L239.9414 23.33125L239.9414 21.784374L240.98828 21.159374L240.98828 23.33125L242.05078 23.33125L242.05078 24.14375L240.98828 24.14375L240.98828 27.784374Q240.98828 28.2375 241.03516 28.3625Q241.09766 28.4875 241.22266 28.565624Q241.34766 28.64375 241.58203 28.64375Q241.76953 28.64375 242.05078 28.6125ZM248.0664 29.55L248.0664 21.971874L245.23828 21.971874L245.23828 20.95625L252.05078 20.95625L252.05078 21.971874L249.20703 21.971874L249.20703 29.55L248.0664 29.55ZM252.36328 26.440624Q252.36328 24.70625 253.3164 23.878124Q254.11328 23.190624 255.26953 23.190624Q256.55078 23.190624 257.36328 24.034374Q258.1914 24.8625 258.1914 26.346874Q258.1914 27.55 257.83203 28.2375Q257.47266 28.925 256.76953 29.315624Q256.08203 29.690624 255.26953 29.690624Q253.97266 29.690624 253.16016 28.8625Q252.36328 28.01875 252.36328 26.440624ZM253.4414 26.440624Q253.4414 27.628124 253.95703 28.221874Q254.48828 28.815624 255.26953 28.815624Q256.0664 28.815624 256.58203 28.221874Q257.09766 27.628124 257.09766 26.409374Q257.09766 25.253124 256.5664 24.659374Q256.05078 24.065624 255.26953 24.065624Q254.48828 24.065624 253.95703 24.659374Q253.4414 25.2375 253.4414 26.440624ZM259.7539 29.55L259.7539 20.95625L260.8164 20.95625L260.8164 25.8625L263.30078 23.33125L264.67578 23.33125L262.28516 25.628124L264.91016 29.55L263.61328 29.55L261.55078 26.3625L260.8164 27.08125L260.8164 29.55L259.7539 29.55ZM270.0039 27.55L271.09766 27.675Q270.84766 28.628124 270.14453 29.159374Q269.4414 29.690624 268.36328 29.690624Q267.0039 29.690624 266.1914 28.846874Q265.39453 28.003124 265.39453 26.4875Q265.39453 24.925 266.20703 24.065624Q267.01953 23.190624 268.30078 23.190624Q269.55078 23.190624 270.33203 24.034374Q271.1289 24.878124 271.1289 26.425Q271.1289 26.51875 271.1289 26.70625L266.48828 26.70625Q266.55078 27.7375 267.0664 28.284374Q267.58203 28.815624 268.36328 28.815624Q268.9414 28.815624 269.34766 28.51875Q269.76953 28.20625 270.0039 27.55ZM266.55078 25.846874L270.01953 25.846874Q269.95703 25.05 269.6289 24.659374Q269.11328 24.05 268.3164 24.05Q267.58203 24.05 267.08203 24.534374Q266.59766 25.01875 266.55078 25.846874ZM272.7539 29.55L272.7539 23.33125L273.6914 23.33125L273.6914 24.20625Q274.3789 23.190624 275.67578 23.190624Q276.23828 23.190624 276.70703 23.39375Q277.1914 23.596874 277.42578 23.925Q277.66016 24.253124 277.7539 24.690624Q277.80078 24.9875 277.80078 25.721874L277.80078 29.55L276.7539 29.55L276.7539 25.76875Q276.7539 25.1125 276.6289 24.8Q276.5039 24.4875 276.1914 24.3Q275.8789 24.096874 275.45703 24.096874Q274.78516 24.096874 274.28516 24.534374Q273.80078 24.95625 273.80078 26.14375L273.80078 29.55L272.7539 29.55ZM279.33203 27.690624L280.36328 27.534374Q280.45703 28.159374 280.84766 28.4875Q281.2539 28.815624 281.98828 28.815624Q282.70703 28.815624 283.05078 28.534374Q283.41016 28.2375 283.41016 27.83125Q283.41016 27.471874 283.09766 27.26875Q282.8789 27.128124 282.01953 26.909374Q280.86328 26.6125 280.41016 26.409374Q279.97266 26.190624 279.73828 25.815624Q279.5039 25.440624 279.5039 24.971874Q279.5039 24.565624 279.6914 24.20625Q279.8789 23.846874 280.20703 23.6125Q280.45703 23.440624 280.8789 23.315624Q281.30078 23.190624 281.80078 23.190624Q282.51953 23.190624 283.0664 23.409374Q283.6289 23.6125 283.89453 23.971874Q284.16016 24.33125 284.2539 24.925L283.22266 25.065624Q283.16016 24.596874 282.8164 24.33125Q282.48828 24.05 281.86328 24.05Q281.14453 24.05 280.83203 24.3Q280.51953 24.534374 280.51953 24.8625Q280.51953 25.065624 280.64453 25.221874Q280.78516 25.39375 281.05078 25.503124Q281.20703 25.565624 281.98828 25.76875Q283.11328 26.08125 283.55078 26.26875Q283.98828 26.45625 284.23828 26.815624Q284.48828 27.175 284.48828 27.721874Q284.48828 28.253124 284.17578 28.721874Q283.8789 29.175 283.30078 29.440624Q282.72266 29.690624 281.98828 29.690624Q280.76953 29.690624 280.1289 29.190624Q279.5039 28.675 279.33203 27.690624Z" fill-rule="nonzero"/><path fill="#f6b26b" d="M301.95703 20.55C301.95703 19.997715 302.40475 19.55 302.95703 19.55L312.95703 19.55C313.5093 19.55 313.95703 19.997715 313.95703 20.55L313.95703 30.55C313.95703 31.102285 313.5093 31.55 312.95703 31.55L302.95703 31.55C302.40475 31.55 301.95703 31.102285 301.95703 30.55Z" fill-rule="nonzero"/><path fill="#ffffff" d="M329.01953 26.534374L330.14453 26.83125Q329.78516 28.221874 328.86328 28.95625Q327.9414 29.690624 326.59766 29.690624Q325.20703 29.690624 324.33203 29.128124Q323.45703 28.565624 323.0039 27.503124Q322.55078 26.425 322.55078 25.190624Q322.55078 23.846874 323.0664 22.846874Q323.58203 21.846874 324.51953 21.33125Q325.47266 20.815624 326.61328 20.815624Q327.89453 20.815624 328.76953 21.471874Q329.66016 22.128124 330.0039 23.315624L328.8789 23.58125Q328.58203 22.64375 328.0039 22.221874Q327.4414 21.784374 326.58203 21.784374Q325.59766 21.784374 324.92578 22.26875Q324.26953 22.7375 323.98828 23.534374Q323.72266 24.33125 323.72266 25.190624Q323.72266 26.284374 324.03516 27.096874Q324.36328 27.909374 325.03516 28.315624Q325.70703 28.721874 326.5039 28.721874Q327.45703 28.721874 328.11328 28.175Q328.78516 27.628124 329.01953 26.534374ZM331.36328 26.440624Q331.36328 24.70625 332.3164 23.878124Q333.11328 23.190624 334.26953 23.190624Q335.55078 23.190624 336.36328 24.034374Q337.1914 24.8625 337.1914 26.346874Q337.1914 27.55 336.83203 28.2375Q336.47266 28.925 335.76953 29.315624Q335.08203 29.690624 334.26953 29.690624Q332.97266 29.690624 332.16016 28.8625Q331.36328 28.01875 331.36328 26.440624ZM332.4414 26.440624Q332.4414 27.628124 332.95703 28.221874Q333.48828 28.815624 334.26953 28.815624Q335.0664 28.815624 335.58203 28.221874Q336.09766 27.628124 336.09766 26.409374Q336.09766 25.253124 335.5664 24.659374Q335.05078 24.065624 334.26953 24.065624Q333.48828 24.065624 332.95703 24.659374Q332.4414 25.2375 332.4414 26.440624ZM338.7539 29.55L338.7539 23.33125L339.6914 23.33125L339.6914 24.20625Q339.98828 23.7375 340.47266 23.471874Q340.95703 23.190624 341.58203 23.190624Q342.26953 23.190624 342.70703 23.471874Q343.16016 23.753124 343.33203 24.26875Q344.08203 23.190624 345.2539 23.190624Q346.1914 23.190624 346.67578 23.70625Q347.17578 24.20625 347.17578 25.284374L347.17578 29.55L346.1289 29.55L346.1289 25.628124Q346.1289 25.003124 346.01953 24.721874Q345.92578 24.440624 345.66016 24.26875Q345.39453 24.096874 345.01953 24.096874Q344.36328 24.096874 343.92578 24.534374Q343.5039 24.971874 343.5039 25.940624L343.5039 29.55L342.4414 29.55L342.4414 25.503124Q342.4414 24.8 342.17578 24.45625Q341.92578 24.096874 341.34766 24.096874Q340.89453 24.096874 340.51953 24.33125Q340.14453 24.565624 339.97266 25.01875Q339.80078 25.471874 339.80078 26.315624L339.80078 29.55L338.7539 29.55ZM349.7539 31.940624L349.7539 23.33125L350.70703 23.33125L350.70703 24.128124Q351.05078 23.659374 351.47266 23.425Q351.91016 23.190624 352.51953 23.190624Q353.3164 23.190624 353.92578 23.596874Q354.53516 24.003124 354.83203 24.753124Q355.14453 25.503124 355.14453 26.39375Q355.14453 27.346874 354.80078 28.1125Q354.47266 28.878124 353.8164 29.284374Q353.16016 29.690624 352.4414 29.690624Q351.91016 29.690624 351.48828 29.471874Q351.0664 29.2375 350.80078 28.909374L350.80078 31.940624L349.7539 31.940624ZM350.70703 26.471874Q350.70703 27.675 351.1914 28.253124Q351.67578 28.815624 352.36328 28.815624Q353.0664 28.815624 353.5664 28.221874Q354.0664 27.628124 354.0664 26.378124Q354.0664 25.190624 353.58203 24.6125Q353.09766 24.01875 352.41016 24.01875Q351.73828 24.01875 351.22266 24.64375Q350.70703 25.26875 350.70703 26.471874ZM356.72266 29.55L356.72266 20.95625L357.78516 20.95625L357.78516 29.55L356.72266 29.55ZM364.0039 27.55L365.09766 27.675Q364.84766 28.628124 364.14453 29.159374Q363.4414 29.690624 362.36328 29.690624Q361.0039 29.690624 360.1914 28.846874Q359.39453 28.003124 359.39453 26.4875Q359.39453 24.925 360.20703 24.065624Q361.01953 23.190624 362.30078 23.190624Q363.55078 23.190624 364.33203 24.034374Q365.1289 24.878124 365.1289 26.425Q365.1289 26.51875 365.1289 26.70625L360.48828 26.70625Q360.55078 27.7375 361.0664 28.284374Q361.58203 28.815624 362.36328 28.815624Q362.9414 28.815624 363.34766 28.51875Q363.76953 28.20625 364.0039 27.55ZM360.55078 25.846874L364.01953 25.846874Q363.95703 25.05 363.6289 24.659374Q363.11328 24.05 362.3164 24.05Q361.58203 24.05 361.08203 24.534374Q360.59766 25.01875 360.55078 25.846874ZM369.05078 28.6125L369.20703 29.534374Q368.7539 29.628124 368.41016 29.628124Q367.83203 29.628124 367.51953 29.45625Q367.20703 29.26875 367.0664 28.971874Q366.9414 28.675 366.9414 27.721874L366.9414 24.14375L366.17578 24.14375L366.17578 23.33125L366.9414 23.33125L366.9414 21.784374L367.98828 21.159374L367.98828 23.33125L369.05078 23.33125L369.05078 24.14375L367.98828 24.14375L367.98828 27.784374Q367.98828 28.2375 368.03516 28.3625Q368.09766 28.4875 368.22266 28.565624Q368.34766 28.64375 368.58203 28.64375Q368.76953 28.64375 369.05078 28.6125ZM369.7539 22.175L369.7539 20.95625L370.8164 20.95625L370.8164 22.175L369.7539 22.175ZM369.7539 29.55L369.7539 23.33125L370.8164 23.33125L370.8164 29.55L369.7539 29.55ZM372.36328 26.440624Q372.36328 24.70625 373.3164 23.878124Q374.11328 23.190624 375.26953 23.190624Q376.55078 23.190624 377.36328 24.034374Q378.1914 24.8625 378.1914 26.346874Q378.1914 27.55 377.83203 28.2375Q377.47266 28.925 376.76953 29.315624Q376.08203 29.690624 375.26953 29.690624Q373.97266 29.690624 373.16016 28.8625Q372.36328 28.01875 372.36328 26.440624ZM373.4414 26.440624Q373.4414 27.628124 373.95703 28.221874Q374.48828 28.815624 375.26953 28.815624Q376.0664 28.815624 376.58203 28.221874Q377.09766 27.628124 377.09766 26.409374Q377.09766 25.253124 376.5664 24.659374Q376.05078 24.065624 375.26953 24.065624Q374.48828 24.065624 373.95703 24.659374Q373.4414 25.2375 373.4414 26.440624ZM379.7539 29.55L379.7539 23.33125L380.6914 23.33125L380.6914 24.20625Q381.3789 23.190624 382.67578 23.190624Q383.23828 23.190624 383.70703 23.39375Q384.1914 23.596874 384.42578 23.925Q384.66016 24.253124 384.7539 24.690624Q384.80078 24.9875 384.80078 25.721874L384.80078 29.55L383.7539 29.55L383.7539 25.76875Q383.7539 25.1125 383.6289 24.8Q383.5039 24.4875 383.1914 24.3Q382.8789 24.096874 382.45703 24.096874Q381.78516 24.096874 381.28516 24.534374Q380.80078 24.95625 380.80078 26.14375L380.80078 29.55L379.7539 29.55ZM392.0664 29.55L392.0664 21.971874L389.23828 21.971874L389.23828 20.95625L396.05078 20.95625L396.05078 21.971874L393.20703 21.971874L393.20703 29.55L392.0664 29.55ZM396.36328 26.440624Q396.36328 24.70625 397.3164 23.878124Q398.11328 23.190624 399.26953 23.190624Q400.55078 23.190624 401.36328 24.034374Q402.1914 24.8625 402.1914 26.346874Q402.1914 27.55 401.83203 28.2375Q401.47266 28.925 400.76953 29.315624Q400.08203 29.690624 399.26953 29.690624Q397.97266 29.690624 397.16016 28.8625Q396.36328 28.01875 396.36328 26.440624ZM397.4414 26.440624Q397.4414 27.628124 397.95703 28.221874Q398.48828 28.815624 399.26953 28.815624Q400.0664 28.815624 400.58203 28.221874Q401.09766 27.628124 401.09766 26.409374Q401.09766 25.253124 400.5664 24.659374Q400.05078 24.065624 399.26953 24.065624Q398.48828 24.065624 397.95703 24.659374Q397.4414 25.2375 397.4414 26.440624ZM403.7539 29.55L403.7539 20.95625L404.8164 20.95625L404.8164 25.8625L407.30078 23.33125L408.67578 23.33125L406.28516 25.628124L408.91016 29.55L407.61328 29.55L405.55078 26.3625L404.8164 27.08125L404.8164 29.55L403.7539 29.55ZM414.0039 27.55L415.09766 27.675Q414.84766 28.628124 414.14453 29.159374Q413.4414 29.690624 412.36328 29.690624Q411.0039 29.690624 410.1914 28.846874Q409.39453 28.003124 409.39453 26.4875Q409.39453 24.925 410.20703 24.065624Q411.01953 23.190624 412.30078 23.190624Q413.55078 23.190624 414.33203 24.034374Q415.1289 24.878124 415.1289 26.425Q415.1289 26.51875 415.1289 26.70625L410.48828 26.70625Q410.55078 27.7375 411.0664 28.284374Q411.58203 28.815624 412.36328 28.815624Q412.9414 28.815624 413.34766 28.51875Q413.76953 28.20625 414.0039 27.55ZM410.55078 25.846874L414.01953 25.846874Q413.95703 25.05 413.6289 24.659374Q413.11328 24.05 412.3164 24.05Q411.58203 24.05 411.08203 24.534374Q410.59766 25.01875 410.55078 25.846874ZM416.7539 29.55L416.7539 23.33125L417.6914 23.33125L417.6914 24.20625Q418.3789 23.190624 419.67578 23.190624Q420.23828 23.190624 420.70703 23.39375Q421.1914 23.596874 421.42578 23.925Q421.66016 24.253124 421.7539 24.690624Q421.80078 24.9875 421.80078 25.721874L421.80078 29.55L420.7539 29.55L420.7539 25.76875Q420.7539 25.1125 420.6289 24.8Q420.5039 24.4875 420.1914 24.3Q419.8789 24.096874 419.45703 24.096874Q418.78516 24.096874 418.28516 24.534374Q417.80078 24.95625 417.80078 26.14375L417.80078 29.55L416.7539 29.55ZM423.33203 27.690624L424.36328 27.534374Q424.45703 28.159374 424.84766 28.4875Q425.2539 28.815624 425.98828 28.815624Q426.70703 28.815624 427.05078 28.534374Q427.41016 28.2375 427.41016 27.83125Q427.41016 27.471874 427.09766 27.26875Q426.8789 27.128124 426.01953 26.909374Q424.86328 26.6125 424.41016 26.409374Q423.97266 26.190624 423.73828 25.815624Q423.5039 25.440624 423.5039 24.971874Q423.5039 24.565624 423.6914 24.20625Q423.8789 23.846874 424.20703 23.6125Q424.45703 23.440624 424.8789 23.315624Q425.30078 23.190624 425.80078 23.190624Q426.51953 23.190624 427.0664 23.409374Q427.6289 23.6125 427.89453 23.971874Q428.16016 24.33125 428.2539 24.925L427.22266 25.065624Q427.16016 24.596874 426.8164 24.33125Q426.48828 24.05 425.86328 24.05Q425.14453 24.05 424.83203 24.3Q424.51953 24.534374 424.51953 24.8625Q424.51953 25.065624 424.64453 25.221874Q424.78516 25.39375 425.05078 25.503124Q425.20703 25.565624 425.98828 25.76875Q427.11328 26.08125 427.55078 26.26875Q427.98828 26.45625 428.23828 26.815624Q428.48828 27.175 428.48828 27.721874Q428.48828 28.253124 428.17578 28.721874Q427.8789 29.175 427.30078 29.440624Q426.72266 29.690624 425.98828 29.690624Q424.76953 29.690624 424.1289 29.190624Q423.5039 28.675 423.33203 27.690624Z" fill-rule="nonzero"/></svg>