<svg width="981" height="297" viewBox="0 0 981 297" fill="none" xmlns="http://www.w3.org/2000/svg">
<rect x="644.779" y="143" width="6.48833" height="6.48833" transform="rotate(6.89836 644.779 143)" fill="#FF07AA"/>
<rect x="0.5" y="0.932861" width="980" height="283" fill="url(#paint0_linear)" stroke="black"/>
<path d="M684.724 1.3894L744.995 24.3459V261.563H684.724V1.3894Z" fill="url(#paint1_linear)"/>
<path d="M684.724 1.3894L654.588 24.3459L577.993 240.998L624.452 261.563H684.724V1.3894Z" fill="url(#paint2_linear)"/>
<path d="M723.649 125.44L756.296 104.067L788.943 82.6938V263.476H723.649V125.44Z" fill="url(#paint3_linear)"/>
<path opacity="0.41" d="M510.187 0.432861H626.963L689.746 263.476H663.052L510.187 0.432861Z" fill="url(#paint4_linear)"/>
<path opacity="0.41" d="M980.269 43.9329L980.269 12.8677H913.254L850.471 261.563H877.165L980.269 80.4329L980.269 43.9329Z" fill="url(#paint5_linear)"/>
<rect x="957.01" y="63.4329" width="23.9905" height="187" fill="black"/>
<rect x="801.5" y="105.65" width="61.5273" height="150.174" fill="black"/>
<rect x="751.273" y="199.389" width="61.5273" height="64.087" fill="black"/>
<rect x="885.629" y="194.607" width="18.8349" height="69.8261" fill="black"/>
<rect x="510.187" y="193.433" width="470.813" height="71" fill="url(#paint6_linear)"/>
<path d="M642.031 137.085L660.866 117.129V263.476H642.031V137.085Z" fill="url(#paint7_linear)"/>
<path d="M940.878 83.3026L955.946 61.6504V220.433H940.878V83.3026Z" fill="url(#paint8_linear)"/>
<path d="M662.122 117.129H694.769V261.563H662.122V117.129Z" fill="black"/>
<path d="M682.212 185.998H721.137V263.476H682.212V185.998Z" fill="black"/>
<path d="M721.138 151.563H736.206V263.476H721.138V151.563Z" fill="black"/>
<ellipse cx="793.338" cy="39.1721" rx="0.628079" ry="0.478261" transform="rotate(-180 793.338 39.1721)" fill="#9D4E8D"/>
<ellipse cx="807.15" cy="47.7808" rx="0.628079" ry="0.478261" transform="rotate(-180 807.15 47.7808)" fill="#9D4E8D"/>
<ellipse cx="782.037" cy="61.1721" rx="0.628079" ry="0.478261" transform="rotate(-180 782.037 61.1721)" fill="#9D4E8D"/>
<ellipse cx="769.48" cy="43.9547" rx="0.628079" ry="0.478261" transform="rotate(-180 769.48 43.9547)" fill="#9D4E8D"/>
<ellipse cx="775.758" cy="46.8242" rx="0.628079" ry="0.478261" transform="rotate(-180 775.758 46.8242)" fill="#9D4E8D"/>
<ellipse cx="566.063" cy="106.129" rx="0.628079" ry="0.478261" transform="rotate(-180 566.063 106.129)" fill="#9D4E8D"/>
<ellipse cx="579.876" cy="114.737" rx="0.628079" ry="0.478261" transform="rotate(-180 579.876 114.737)" fill="#9D4E8D"/>
<ellipse cx="554.762" cy="128.129" rx="0.628079" ry="0.478261" transform="rotate(-180 554.762 128.129)" fill="#9D4E8D"/>
<ellipse cx="542.206" cy="110.911" rx="0.628079" ry="0.478261" transform="rotate(-180 542.206 110.911)" fill="#9D4E8D"/>
<ellipse cx="548.484" cy="113.781" rx="0.628079" ry="0.478261" transform="rotate(-180 548.484 113.781)" fill="#9D4E8D"/>
<ellipse cx="793.338" cy="39.1721" rx="0.628079" ry="0.478261" transform="rotate(-180 793.338 39.1721)" fill="#9D4E8D"/>
<ellipse cx="807.15" cy="47.7808" rx="0.628079" ry="0.478261" transform="rotate(-180 807.15 47.7808)" fill="#9D4E8D"/>
<ellipse cx="782.037" cy="61.1721" rx="0.628079" ry="0.478261" transform="rotate(-180 782.037 61.1721)" fill="#9D4E8D"/>
<ellipse cx="769.48" cy="43.9547" rx="0.628079" ry="0.478261" transform="rotate(-180 769.48 43.9547)" fill="#9D4E8D"/>
<ellipse cx="775.758" cy="46.8242" rx="0.628079" ry="0.478261" transform="rotate(-180 775.758 46.8242)" fill="#9D4E8D"/>
<ellipse cx="566.063" cy="106.129" rx="0.628079" ry="0.478261" transform="rotate(-180 566.063 106.129)" fill="#9D4E8D"/>
<ellipse cx="579.876" cy="114.737" rx="0.628079" ry="0.478261" transform="rotate(-180 579.876 114.737)" fill="#9D4E8D"/>
<ellipse cx="554.762" cy="128.129" rx="0.628079" ry="0.478261" transform="rotate(-180 554.762 128.129)" fill="#9D4E8D"/>
<ellipse cx="542.206" cy="110.911" rx="0.628079" ry="0.478261" transform="rotate(-180 542.206 110.911)" fill="#9D4E8D"/>
<ellipse cx="548.484" cy="113.781" rx="0.628079" ry="0.478261" transform="rotate(-180 548.484 113.781)" fill="#9D4E8D"/>
<ellipse cx="578.62" cy="100.389" rx="0.628079" ry="0.478261" transform="rotate(-180 578.62 100.389)" fill="#9D4E8D"/>
<ellipse cx="592.432" cy="108.998" rx="0.628079" ry="0.478261" transform="rotate(-180 592.432 108.998)" fill="#9D4E8D"/>
<ellipse cx="567.319" cy="122.389" rx="0.628079" ry="0.478261" transform="rotate(-180 567.319 122.389)" fill="#9D4E8D"/>
<ellipse cx="554.763" cy="105.172" rx="0.628079" ry="0.478261" transform="rotate(-180 554.763 105.172)" fill="#9D4E8D"/>
<ellipse cx="581.132" cy="24.8242" rx="0.628079" ry="0.478261" transform="rotate(-180 581.132 24.8242)" fill="#9D4E8D"/>
<ellipse cx="540.95" cy="1.86769" rx="0.628079" ry="0.478261" transform="rotate(-180 540.95 1.86769)" fill="#9D4E8D"/>
<ellipse cx="554.763" cy="10.4763" rx="0.628079" ry="0.478261" transform="rotate(-180 554.763 10.4763)" fill="#9D4E8D"/>
<ellipse cx="529.649" cy="23.8677" rx="0.628079" ry="0.478261" transform="rotate(-180 529.649 23.8677)" fill="#9D4E8D"/>
<ellipse cx="517.094" cy="6.65028" rx="0.628079" ry="0.478261" transform="rotate(-180 517.094 6.65028)" fill="#9D4E8D"/>
<ellipse cx="523.371" cy="9.51979" rx="0.628079" ry="0.478261" transform="rotate(-180 523.371 9.51979)" fill="#9D4E8D"/>
<ellipse cx="852.354" cy="90.8242" rx="0.628079" ry="0.478261" transform="rotate(-180 852.354 90.8242)" fill="#9D4E8D"/>
<ellipse cx="866.166" cy="99.4329" rx="0.628079" ry="0.478261" transform="rotate(-180 866.166 99.4329)" fill="#9D4E8D"/>
<ellipse cx="828.496" cy="95.6068" rx="0.628079" ry="0.478261" transform="rotate(-180 828.496 95.6068)" fill="#9D4E8D"/>
<ellipse cx="834.774" cy="98.4763" rx="0.628079" ry="0.478261" transform="rotate(-180 834.774 98.4763)" fill="#9D4E8D"/>
<path d="M902.031 212.396L981 159.433V263.433H902.031V212.396Z" fill="black"/>
<rect x="372.242" y="76.4329" width="205.928" height="0.956522" fill="url(#paint9_linear)"/>
<rect x="417" y="68.4329" width="205.928" height="0.956522" fill="url(#paint10_linear)"/>
<rect opacity="0.5" x="464.205" y="77.4329" width="205.928" height="0.956522" fill="url(#paint11_linear)" fill-opacity="0.2"/>
<rect width="981" height="58" transform="matrix(1 0 0 -1 0 296.433)" fill="black"/>
<path d="M256.5 64.4327L477.769 238.433H35.2305L256.5 64.4327Z" fill="black"/>
<path d="M256.5 64.4327L477.769 238.433H35.2305L256.5 64.4327Z" stroke="black"/>
<path d="M494.242 109.433L644.064 246.683H344.419L494.242 109.433Z" fill="black" fill-opacity="0.77"/>
<path d="M494.242 109.433L644.064 246.683H344.419L494.242 109.433Z" stroke="black"/>
<path d="M399.242 131.433L524.815 246.183H273.668L399.242 131.433Z" fill="black" fill-opacity="0.77"/>
<path d="M399.242 131.433L524.815 246.183H273.668L399.242 131.433Z" stroke="black"/>
<path d="M1 0.432861H62L255 284.433H1V0.432861Z" fill="black"/>
<path d="M19.2417 234.433L56.4978 114.433L78.5754 166.933L119.242 234.433H19.2417Z" fill="#A4056E" fill-opacity="0.645833"/>
<path d="M120.242 234.433H106.742L53.2417 125.933L57.2417 115.433L120.242 234.433Z" fill="#FF07AA"/>
<rect opacity="0.5" width="619" height="4" transform="matrix(1 0 0 -1 11.2417 216.433)" fill="url(#paint12_linear)"/>
<rect opacity="0.5" width="759" height="4" transform="matrix(1 0 0 -1 62.2417 204.433)" fill="url(#paint13_linear)"/>
<rect opacity="0.5" width="759" height="29.9999" transform="matrix(-1 8.74228e-08 8.74228e-08 1 819.242 196.433)" fill="url(#paint14_linear)"/>
<rect x="111.582" y="43.4327" width="6.57446" height="6.57446" transform="rotate(30.533 111.582 43.4327)" fill="#FF07AA"/>
<rect x="35.5815" y="128.433" width="6.57446" height="6.57446" transform="rotate(30.533 35.5815 128.433)" fill="#FF07AA"/>
<rect x="149.582" y="18.4331" width="6.57446" height="6.57446" transform="rotate(30.533 149.582 18.4331)" fill="#FF07AA"/>
<rect x="324.582" y="131.433" width="6.57446" height="6.57446" transform="rotate(30.533 324.582 131.433)" fill="#FF07AA"/>
<rect x="341.582" y="125.433" width="6.57446" height="6.57446" transform="rotate(30.533 341.582 125.433)" fill="#FF07AA"/>
<rect x="557.021" y="108.433" width="6.48833" height="6.48833" transform="rotate(6.89836 557.021 108.433)" fill="#FF07AA"/>
<rect x="648.021" y="139.433" width="6.48833" height="6.48833" transform="rotate(6.89836 648.021 139.433)" fill="#6F3FCA"/>
<rect x="641.021" y="145.433" width="6.48833" height="6.48833" transform="rotate(6.89836 641.021 145.433)" fill="#B60178"/>
<rect x="714.582" y="143.433" width="6.57446" height="6.57446" transform="rotate(30.533 714.582 143.433)" fill="#FF07AA"/>
<rect x="637.582" y="99.4327" width="6.57446" height="6.57446" transform="rotate(30.533 637.582 99.4327)" fill="#FF07AA"/>
<rect x="748.582" y="172.433" width="6.57446" height="6.57446" transform="rotate(30.533 748.582 172.433)" fill="#FF07AA"/>
<rect x="724.582" y="235.433" width="6.57446" height="6.57446" transform="rotate(30.533 724.582 235.433)" fill="#FF07AA"/>
<rect x="785.582" y="156.433" width="6.57446" height="6.57446" transform="rotate(30.533 785.582 156.433)" fill="#FF07AA"/>
<rect x="156.021" y="178.433" width="6.48833" height="6.48833" transform="rotate(6.89836 156.021 178.433)" fill="#FF07AA"/>
<rect x="186.021" y="166.433" width="6.48833" height="6.48833" transform="rotate(6.89836 186.021 166.433)" fill="#760B51"/>
<rect x="218.021" y="137.433" width="6.48833" height="6.48833" transform="rotate(6.89836 218.021 137.433)" fill="#760B51"/>
<rect x="235.021" y="151.433" width="6.48833" height="6.48833" transform="rotate(6.89836 235.021 151.433)" fill="#760B51"/>
<rect x="250.021" y="137.433" width="6.48833" height="6.48833" transform="rotate(6.89836 250.021 137.433)" fill="#FF07AA"/>
<rect x="131.021" y="214.433" width="6.48833" height="6.48833" transform="rotate(6.89836 131.021 214.433)" fill="#FF07AA"/>
<rect x="217.582" y="53.4327" width="6.57446" height="6.57446" transform="rotate(30.533 217.582 53.4327)" fill="#FF07AA"/>
<rect x="201.582" y="56.4327" width="6.57446" height="6.57446" transform="rotate(30.533 201.582 56.4327)" fill="#FF07AA"/>
<rect x="108.242" y="76.8722" width="12.3082" height="12.3082" transform="rotate(-21.1431 108.242 76.8722)" fill="#FF07AA"/>
<rect x="145.242" y="80.8722" width="12.3082" height="12.3082" transform="rotate(-21.1431 145.242 80.8722)" fill="#731352"/>
<rect x="294.242" y="92.8722" width="12.3082" height="12.3082" transform="rotate(-21.1431 294.242 92.8722)" fill="#FF07AA"/>
<rect x="84.2417" y="142.433" width="12.3082" height="12.3082" fill="#FF07AA"/>
<rect x="168.242" y="222.872" width="12.3082" height="12.3082" transform="rotate(-21.1431 168.242 222.872)" fill="#FF07AA"/>
<rect x="59.8472" y="170.433" width="12.3082" height="12.3082" transform="rotate(12.2226 59.8472 170.433)" fill="#FF07AA"/>
<rect x="112.242" y="122.872" width="12.3082" height="12.3082" transform="rotate(-21.1431 112.242 122.872)" fill="#FF07AA"/>
<rect x="588.582" y="257.433" width="6.57446" height="6.57446" transform="rotate(30.533 588.582 257.433)" fill="#FF07AA"/>
<circle cx="444.802" cy="108.986" r="0.552826" transform="rotate(-180 444.802 108.986)" fill="#9D4E8D"/>
<circle cx="456.964" cy="118.936" r="0.552826" transform="rotate(-180 456.964 118.936)" fill="#9D4E8D"/>
<circle cx="434.851" cy="134.416" r="0.552826" transform="rotate(-180 434.851 134.416)" fill="#9D4E8D"/>
<circle cx="423.794" cy="114.514" r="0.552826" transform="rotate(-180 423.794 114.514)" fill="#9D4E8D"/>
<circle cx="429.323" cy="117.831" r="0.552826" transform="rotate(-180 429.323 117.831)" fill="#9D4E8D"/>
<circle cx="504.457" cy="84.4951" r="0.552826" transform="rotate(-119.358 504.457 84.4951)" fill="#9D4E8D"/>
<circle cx="501.747" cy="99.9738" r="0.552826" transform="rotate(-119.358 501.747 99.9738)" fill="#9D4E8D"/>
<circle cx="477.415" cy="88.2896" r="0.552826" transform="rotate(-119.358 477.415 88.2896)" fill="#9D4E8D"/>
<circle cx="489.34" cy="68.8959" r="0.552826" transform="rotate(-119.358 489.34 68.8959)" fill="#9D4E8D"/>
<circle cx="489.16" cy="75.3404" r="0.552826" transform="rotate(-119.358 489.16 75.3404)" fill="#9D4E8D"/>
<circle cx="388.351" cy="82.7545" r="0.552826" transform="rotate(-61.9621 388.351 82.7545)" fill="#9D4E8D"/>
<circle cx="373.851" cy="88.8117" r="0.552826" transform="rotate(-61.9621 373.851 88.8117)" fill="#9D4E8D"/>
<circle cx="370.583" cy="62.0179" r="0.552826" transform="rotate(-61.9621 370.583 62.0179)" fill="#9D4E8D"/>
<circle cx="393.346" cy="61.614" r="0.552826" transform="rotate(-61.9621 393.346 61.614)" fill="#9D4E8D"/>
<circle cx="387.82" cy="64.9343" r="0.552826" transform="rotate(-61.9621 387.82 64.9343)" fill="#9D4E8D"/>
<circle cx="458.964" cy="113.936" r="0.552826" transform="rotate(-180 458.964 113.936)" fill="#9D4E8D"/>
<circle cx="436.851" cy="129.416" r="0.552826" transform="rotate(-180 436.851 129.416)" fill="#9D4E8D"/>
<circle cx="425.794" cy="109.514" r="0.552826" transform="rotate(-180 425.794 109.514)" fill="#9D4E8D"/>
<circle cx="371.802" cy="87.9856" r="0.552826" transform="rotate(-180 371.802 87.9856)" fill="#9D4E8D"/>
<circle cx="383.964" cy="97.9364" r="0.552826" transform="rotate(-180 383.964 97.9364)" fill="#9D4E8D"/>
<circle cx="361.851" cy="113.416" r="0.552826" transform="rotate(-180 361.851 113.416)" fill="#9D4E8D"/>
<circle cx="350.794" cy="93.5138" r="0.552826" transform="rotate(-180 350.794 93.5138)" fill="#9D4E8D"/>
<circle cx="356.323" cy="96.8308" r="0.552826" transform="rotate(-180 356.323 96.8308)" fill="#9D4E8D"/>
<circle cx="421.802" cy="42.9856" r="0.552826" transform="rotate(-180 421.802 42.9856)" fill="#9D4E8D"/>
<circle cx="433.964" cy="52.9364" r="0.552826" transform="rotate(-180 433.964 52.9364)" fill="#9D4E8D"/>
<circle cx="411.851" cy="68.4156" r="0.552826" transform="rotate(-180 411.851 68.4156)" fill="#9D4E8D"/>
<circle cx="400.794" cy="48.5138" r="0.552826" transform="rotate(-180 400.794 48.5138)" fill="#9D4E8D"/>
<circle cx="406.323" cy="51.8308" r="0.552826" transform="rotate(-180 406.323 51.8308)" fill="#9D4E8D"/>
<circle cx="180.391" cy="108.081" r="0.552826" transform="rotate(-88.1166 180.391 108.081)" fill="#9D4E8D"/>
<circle cx="170.046" cy="119.909" r="0.552826" transform="rotate(-88.1166 170.046 119.909)" fill="#9D4E8D"/>
<circle cx="155.302" cy="97.2998" r="0.552826" transform="rotate(-88.1166 155.302 97.2998)" fill="#9D4E8D"/>
<circle cx="175.557" cy="86.9033" r="0.552826" transform="rotate(-88.1166 175.557 86.9033)" fill="#9D4E8D"/>
<circle cx="172.059" cy="92.3195" r="0.552826" transform="rotate(-88.1166 172.059 92.3195)" fill="#9D4E8D"/>
<circle cx="192.887" cy="57.6394" r="0.552826" transform="rotate(153.846 192.887 57.6394)" fill="#9D4E8D"/>
<circle cx="208.189" cy="61.2105" r="0.552826" transform="rotate(153.846 208.189 61.2105)" fill="#9D4E8D"/>
<circle cx="195.164" cy="84.8518" r="0.552826" transform="rotate(153.846 195.164 84.8518)" fill="#9D4E8D"/>
<circle cx="176.467" cy="71.8615" r="0.552826" transform="rotate(153.846 176.467 71.8615)" fill="#9D4E8D"/>
<circle cx="182.891" cy="72.402" r="0.552826" transform="rotate(153.846 182.891 72.402)" fill="#9D4E8D"/>
<circle cx="231.55" cy="44.1109" r="0.552826" transform="rotate(-2.45231 231.55 44.1109)" fill="#9D4E8D"/>
<circle cx="218.973" cy="34.6896" r="0.552826" transform="rotate(-2.45231 218.973 34.6896)" fill="#9D4E8D"/>
<circle cx="240.404" cy="18.2784" r="0.552826" transform="rotate(-2.45231 240.404 18.2784)" fill="#9D4E8D"/>
<circle cx="252.302" cy="37.6888" r="0.552826" transform="rotate(-2.45231 252.302 37.6888)" fill="#9D4E8D"/>
<circle cx="246.637" cy="34.6114" r="0.552826" transform="rotate(-2.45231 246.637 34.6114)" fill="#9D4E8D"/>
<circle cx="282.792" cy="52.7572" r="0.552826" transform="rotate(-120.49 282.792 52.7572)" fill="#9D4E8D"/>
<circle cx="280.388" cy="68.2865" r="0.552826" transform="rotate(-120.49 280.388 68.2865)" fill="#9D4E8D"/>
<circle cx="255.83" cy="57.0853" r="0.552826" transform="rotate(-120.49 255.83 57.0853)" fill="#9D4E8D"/>
<circle cx="267.369" cy="37.4598" r="0.552826" transform="rotate(-120.49 267.369 37.4598)" fill="#9D4E8D"/>
<circle cx="267.316" cy="43.9066" r="0.552826" transform="rotate(-120.49 267.316 43.9066)" fill="#9D4E8D"/>
<circle cx="118.831" cy="26.5395" r="0.552826" transform="rotate(49.5173 118.831 26.5395)" fill="#9D4E8D"/>
<circle cx="118.504" cy="10.8287" r="0.552826" transform="rotate(49.5173 118.504 10.8287)" fill="#9D4E8D"/>
<circle cx="144.633" cy="17.5985" r="0.552826" transform="rotate(49.5173 144.633 17.5985)" fill="#9D4E8D"/>
<circle cx="136.674" cy="38.9287" r="0.552826" transform="rotate(49.5173 136.674 38.9287)" fill="#9D4E8D"/>
<circle cx="135.608" cy="32.5704" r="0.552826" transform="rotate(49.5173 135.608 32.5704)" fill="#9D4E8D"/>
<circle cx="143.589" cy="72.2289" r="0.552826" transform="rotate(-68.5206 143.589 72.2289)" fill="#9D4E8D"/>
<circle cx="129.877" cy="79.9027" r="0.552826" transform="rotate(-68.5206 129.877 79.9027)" fill="#9D4E8D"/>
<circle cx="123.569" cy="53.6575" r="0.552826" transform="rotate(-68.5206 123.569 53.6575)" fill="#9D4E8D"/>
<circle cx="146.137" cy="50.6563" r="0.552826" transform="rotate(-68.5206 146.137 50.6563)" fill="#9D4E8D"/>
<circle cx="141.026" cy="54.5859" r="0.552826" transform="rotate(-68.5206 141.026 54.5859)" fill="#9D4E8D"/>
<circle cx="158.831" cy="27.5395" r="0.552826" transform="rotate(49.5173 158.831 27.5395)" fill="#9D4E8D"/>
<circle cx="158.504" cy="11.8287" r="0.552826" transform="rotate(49.5173 158.504 11.8287)" fill="#9D4E8D"/>
<circle cx="184.633" cy="18.5985" r="0.552826" transform="rotate(49.5173 184.633 18.5985)" fill="#9D4E8D"/>
<circle cx="176.674" cy="39.9287" r="0.552826" transform="rotate(49.5173 176.674 39.9287)" fill="#9D4E8D"/>
<circle cx="175.608" cy="33.5704" r="0.552826" transform="rotate(49.5173 175.608 33.5704)" fill="#9D4E8D"/>
<circle cx="183.589" cy="73.2289" r="0.552826" transform="rotate(-68.5206 183.589 73.2289)" fill="#9D4E8D"/>
<circle cx="169.877" cy="80.9027" r="0.552826" transform="rotate(-68.5206 169.877 80.9027)" fill="#9D4E8D"/>
<circle cx="163.569" cy="54.6575" r="0.552826" transform="rotate(-68.5206 163.569 54.6575)" fill="#9D4E8D"/>
<circle cx="186.137" cy="51.6563" r="0.552826" transform="rotate(-68.5206 186.137 51.6563)" fill="#9D4E8D"/>
<circle cx="181.026" cy="55.5859" r="0.552826" transform="rotate(-68.5206 181.026 55.5859)" fill="#9D4E8D"/>
<circle cx="906.805" cy="28.8043" r="0.552826" transform="rotate(-2.45231 906.805 28.8043)" fill="#9D4E8D"/>
<circle cx="894.228" cy="19.3829" r="0.552826" transform="rotate(-2.45231 894.228 19.3829)" fill="#9D4E8D"/>
<circle cx="915.659" cy="2.97178" r="0.552826" transform="rotate(-2.45231 915.659 2.97178)" fill="#9D4E8D"/>
<circle cx="927.556" cy="22.3822" r="0.552826" transform="rotate(-2.45231 927.556 22.3822)" fill="#9D4E8D"/>
<circle cx="921.891" cy="19.3048" r="0.552826" transform="rotate(-2.45231 921.891 19.3048)" fill="#9D4E8D"/>
<circle cx="958.047" cy="37.4505" r="0.552826" transform="rotate(-120.49 958.047 37.4505)" fill="#9D4E8D"/>
<circle cx="955.643" cy="52.9798" r="0.552826" transform="rotate(-120.49 955.643 52.9798)" fill="#9D4E8D"/>
<circle cx="931.085" cy="41.7786" r="0.552826" transform="rotate(-120.49 931.085 41.7786)" fill="#9D4E8D"/>
<circle cx="942.624" cy="22.1532" r="0.552826" transform="rotate(-120.49 942.624 22.1532)" fill="#9D4E8D"/>
<circle cx="942.571" cy="28.5999" r="0.552826" transform="rotate(-120.49 942.571 28.5999)" fill="#9D4E8D"/>
<circle cx="880.805" cy="74.8043" r="0.552826" transform="rotate(-2.45231 880.805 74.8043)" fill="#9D4E8D"/>
<circle cx="868.228" cy="65.3829" r="0.552826" transform="rotate(-2.45231 868.228 65.3829)" fill="#9D4E8D"/>
<circle cx="889.659" cy="48.9718" r="0.552826" transform="rotate(-2.45231 889.659 48.9718)" fill="#9D4E8D"/>
<circle cx="901.556" cy="68.3822" r="0.552826" transform="rotate(-2.45231 901.556 68.3822)" fill="#9D4E8D"/>
<circle cx="895.891" cy="65.3048" r="0.552826" transform="rotate(-2.45231 895.891 65.3048)" fill="#9D4E8D"/>
<circle cx="932.047" cy="83.4506" r="0.552826" transform="rotate(-120.49 932.047 83.4506)" fill="#9D4E8D"/>
<circle cx="929.643" cy="98.9799" r="0.552826" transform="rotate(-120.49 929.643 98.9799)" fill="#9D4E8D"/>
<circle cx="905.085" cy="87.7788" r="0.552826" transform="rotate(-120.49 905.085 87.7788)" fill="#9D4E8D"/>
<circle cx="916.624" cy="68.1533" r="0.552826" transform="rotate(-120.49 916.624 68.1533)" fill="#9D4E8D"/>
<circle cx="342.802" cy="19.986" r="0.552826" transform="rotate(-180 342.802 19.986)" fill="#9D4E8D"/>
<circle cx="354.964" cy="29.9368" r="0.552826" transform="rotate(-180 354.964 29.9368)" fill="#9D4E8D"/>
<circle cx="332.851" cy="45.4159" r="0.552826" transform="rotate(-180 332.851 45.4159)" fill="#9D4E8D"/>
<circle cx="321.794" cy="25.5142" r="0.552826" transform="rotate(-180 321.794 25.5142)" fill="#9D4E8D"/>
<circle cx="393.964" cy="93.9364" r="0.552826" transform="rotate(-180 393.964 93.9364)" fill="#9D4E8D"/>
<circle cx="371.851" cy="109.416" r="0.552826" transform="rotate(-180 371.851 109.416)" fill="#9D4E8D"/>
<circle cx="360.794" cy="89.5138" r="0.552826" transform="rotate(-180 360.794 89.5138)" fill="#9D4E8D"/>
<g opacity="0.73">
<path d="M775.435 226.464V201.51L792.591 193.711H822.225L837.302 204.629L843.541 220.226L834.183 231.663L819.626 226.464H775.435Z" fill="white"/>
<circle cx="763.826" cy="218.849" r="18.084" fill="white" stroke="white" stroke-width="3"/>
<circle cx="763.826" cy="218.849" r="12.0617" fill="black"/>
<path d="M773.06 195.264L768.242 193.571L775.242 197.933L776.395 198.911L788.872 206.464C788.708 210.806 788.477 220.061 788.872 222.353C789.268 224.646 791.014 223.743 791.837 223.005L796.902 215.711H817.039L832.975 205.032V208.809L841.376 204.25L849.035 202.036L855.212 205.032L860.895 206.464L863.242 205.032L860.895 202.818C859.412 201.863 853.235 197.087 845.452 193.571C837.847 190.135 828.281 187.884 823.216 187.189C820.772 186.846 816.413 186.466 811.233 186.435C805.937 186.403 799.782 186.734 793.937 187.84C782.374 190.028 775.201 193.701 773.06 195.264Z" fill="#9181A9"/>
<circle cx="846.312" cy="218.849" r="18.084" fill="white" stroke="white" stroke-width="3"/>
<circle cx="846.312" cy="218.849" r="12.0617" fill="black"/>
<circle cx="846.312" cy="218.849" r="3.50177" fill="white"/>
<circle cx="763.742" cy="218.933" r="2.5" fill="white" stroke="white" stroke-width="4"/>
<path d="M816.636 200.99L811.308 192.444C821.601 191.037 834.313 195.042 839.382 197.22L834.053 200.99H816.636Z" fill="black"/>
<ellipse cx="801.169" cy="220.745" rx="6.49862" ry="1.55967" fill="black"/>
<circle cx="792.591" cy="223.865" r="2.07956" fill="black"/>
</g>
<rect x="646.779" y="141" width="6.48833" height="6.48833" transform="rotate(6.89836 646.779 141)" fill="#FF07AA"/>
<defs>
<linearGradient id="paint0_linear" x1="490.5" y1="0.432861" x2="490.5" y2="284.433" gradientUnits="userSpaceOnUse">
<stop stop-color="#100024"/>
<stop offset="0.40625" stop-color="#270170"/>
<stop offset="0.901042" stop-color="#9B158F"/>
</linearGradient>
<linearGradient id="paint1_linear" x1="714.86" y1="6.17201" x2="714.86" y2="243.389" gradientUnits="userSpaceOnUse">
<stop/>
<stop offset="1" stop-opacity="0"/>
</linearGradient>
<linearGradient id="paint2_linear" x1="714.86" y1="6.17201" x2="714.86" y2="243.389" gradientUnits="userSpaceOnUse">
<stop/>
<stop offset="1" stop-opacity="0"/>
</linearGradient>
<linearGradient id="paint3_linear" x1="756.296" y1="47.4192" x2="756.296" y2="263.476" gradientUnits="userSpaceOnUse">
<stop/>
<stop offset="1" stop-color="#27016F"/>
</linearGradient>
<linearGradient id="paint4_linear" x1="555.694" y1="0.151696" x2="555.694" y2="259.369" gradientUnits="userSpaceOnUse">
<stop stop-color="#FFF4BD" stop-opacity="0"/>
<stop offset="1" stop-color="#FFEE97"/>
</linearGradient>
<linearGradient id="paint5_linear" x1="984.523" y1="12.6018" x2="984.523" y2="257.68" gradientUnits="userSpaceOnUse">
<stop stop-color="#FFF4BD" stop-opacity="0"/>
<stop offset="1" stop-color="#FFEE97"/>
</linearGradient>
<linearGradient id="paint6_linear" x1="745.594" y1="193.433" x2="745.594" y2="264.433" gradientUnits="userSpaceOnUse">
<stop stop-color="#7B29FF" stop-opacity="0"/>
<stop offset="0.979167" stop-color="#C41FB3"/>
</linearGradient>
<linearGradient id="paint7_linear" x1="651.449" y1="117.129" x2="651.449" y2="263.476" gradientUnits="userSpaceOnUse">
<stop stop-color="#7B48DC"/>
<stop offset="1" stop-color="#7B48DC" stop-opacity="0"/>
</linearGradient>
<linearGradient id="paint8_linear" x1="948.412" y1="61.6504" x2="948.412" y2="220.433" gradientUnits="userSpaceOnUse">
<stop stop-color="#7B48DC"/>
<stop offset="1" stop-color="#7B48DC" stop-opacity="0"/>
</linearGradient>
<linearGradient id="paint9_linear" x1="475.206" y1="76.4329" x2="642.208" y2="76.4329" gradientUnits="userSpaceOnUse">
<stop stop-color="#A20DD6"/>
<stop offset="0.46875" stop-color="#53307C" stop-opacity="0.72"/>
<stop offset="1" stop-opacity="0"/>
</linearGradient>
<linearGradient id="paint10_linear" x1="519.964" y1="68.4329" x2="686.967" y2="68.4329" gradientUnits="userSpaceOnUse">
<stop stop-color="#A20DD6"/>
<stop offset="0.46875" stop-color="#53307C" stop-opacity="0.72"/>
<stop offset="1" stop-opacity="0"/>
</linearGradient>
<linearGradient id="paint11_linear" x1="567.169" y1="77.4329" x2="734.172" y2="77.4329" gradientUnits="userSpaceOnUse">
<stop stop-color="#FE07AA"/>
<stop offset="0.0833333" stop-color="#A4056E" stop-opacity="0.645833"/>
<stop offset="1" stop-opacity="0"/>
</linearGradient>
<linearGradient id="paint12_linear" x1="309.5" y1="0" x2="811.494" y2="0" gradientUnits="userSpaceOnUse">
<stop stop-color="#FE07AA"/>
<stop offset="0.0833333" stop-color="#A4056E" stop-opacity="0.645833"/>
<stop offset="1" stop-opacity="0"/>
</linearGradient>
<linearGradient id="paint13_linear" x1="379.5" y1="0" x2="995.03" y2="0" gradientUnits="userSpaceOnUse">
<stop stop-color="#FE07AA"/>
<stop offset="0.0833333" stop-color="#A4056E" stop-opacity="0.645833"/>
<stop offset="1" stop-opacity="0"/>
</linearGradient>
<linearGradient id="paint14_linear" x1="379.5" y1="0" x2="995.03" y2="0" gradientUnits="userSpaceOnUse">
<stop stop-color="#FE07AA"/>
<stop offset="0.0833333" stop-color="#A4056E" stop-opacity="0.645833"/>
<stop offset="1" stop-opacity="0"/>
</linearGradient>
</defs>
</svg>
